{"glyphs":{":":{"x_min":0,"x_max":220,"ha":220,"o":"m 57 368 q 57 390 73 406 q 89 421 111 421 q 133 421 148 406 q 164 390 164 368 q 164 346 148 330 q 133 313 111 313 q 89 313 73 330 q 57 346 57 368 z m 57 44 q 57 66 73 82 q 89 97 111 97 q 133 97 148 82 q 164 66 164 44 q 164 22 148 6 q 133 -11 111 -11 q 89 -11 73 6 q 57 22 57 44 z"},"$":{"x_min":0,"x_max":486,"ha":486,"o":"m 285 667 q 291 667 305 666 q 319 665 319 660 l 312 618 q 329 614 348 609 q 367 604 393 598 q 400 568 402 536 q 403 505 404 483 q 404 478 404 474 q 404 469 404 465 q 397 461 387 461 q 378 461 373 466 q 370 491 352 522 q 335 554 305 573 l 268 347 q 270 346 272 345 q 273 344 274 343 q 297 328 326 311 q 354 294 380 272 q 405 251 422 224 q 438 197 438 162 q 438 110 410 72 q 382 33 337 12 q 292 -10 241 -10 q 233 -10 225 -10 q 217 -9 209 -8 l 202 -51 q 195 -51 182 -49 q 168 -47 168 -42 l 174 -4 q 146 1 120 8 q 94 14 72 18 q 66 46 61 77 q 56 108 53 132 q 50 156 50 161 q 53 164 61 166 q 69 169 74 169 q 83 169 85 164 q 88 153 96 128 q 105 102 125 76 q 145 50 181 35 l 221 277 q 186 298 150 322 q 115 347 91 380 q 67 414 67 459 q 67 509 94 546 q 120 583 162 604 q 204 624 251 624 q 259 624 266 624 q 272 624 278 623 z m 253 259 l 215 26 q 222 25 229 24 q 236 23 243 23 q 287 23 321 52 q 355 82 355 137 q 355 172 341 193 q 327 214 304 229 q 281 244 253 259 z m 236 367 l 272 588 q 265 590 258 591 q 252 592 245 592 q 204 592 182 576 q 160 559 152 535 q 143 511 143 488 q 143 443 171 416 q 199 390 236 367 z"},"?":{"x_min":0,"x_max":347,"ha":347,"o":"m 98 535 q 88 535 72 548 q 55 560 55 584 q 55 609 63 620 q 77 627 110 627 q 134 627 166 615 q 199 603 230 580 q 262 556 282 522 q 303 489 303 446 q 303 397 281 363 q 259 329 204 297 q 191 289 174 276 q 158 264 144 253 q 131 242 128 236 q 123 226 122 211 q 121 196 122 182 q 122 178 122 174 q 122 171 122 168 q 119 162 116 159 q 113 156 106 155 q 98 158 94 166 q 90 182 88 209 q 86 236 86 255 q 86 291 100 314 q 113 336 132 350 q 151 365 169 376 q 205 399 230 420 q 254 441 254 476 q 254 514 232 535 q 210 556 182 556 q 156 556 142 551 q 129 546 120 540 q 111 535 98 535 z m 62 44 q 62 66 78 82 q 94 97 116 97 q 138 97 154 82 q 169 66 169 44 q 169 22 154 6 q 138 -11 116 -11 q 94 -11 78 6 q 62 22 62 44 z"},"<":{"x_min":0,"x_max":480,"ha":480,"o":"m 434 34 q 434 31 432 19 q 429 7 425 -4 q 421 -15 418 -15 q 417 -15 413 -13 l 47 173 q 36 179 32 189 q 29 199 29 212 q 29 220 34 226 q 40 231 47 235 l 407 418 q 411 420 412 420 q 414 420 419 410 q 424 401 429 374 q 430 370 428 368 q 426 365 426 365 l 107 204 l 431 40 q 431 40 432 39 q 434 38 434 34 z"},"'":{"x_min":0,"x_max":156,"ha":156,"o":"m 89 683 q 104 683 114 670 q 114 660 113 636 q 112 613 110 584 q 108 555 106 527 q 103 499 101 480 q 96 469 81 462 q 75 462 72 468 q 56 521 47 558 q 38 594 38 614 q 38 628 44 644 q 51 660 62 672 q 74 683 89 683 z"},"=":{"x_min":0,"x_max":551,"ha":551,"o":"m 467 258 l 71 258 q 65 258 66 270 q 68 283 74 296 q 79 310 86 312 l 480 312 q 487 312 486 300 q 485 288 480 275 q 474 262 467 258 z m 467 117 l 71 117 q 65 117 66 130 q 68 142 74 156 q 79 169 86 171 l 480 171 q 487 171 486 159 q 485 147 480 134 q 474 121 467 117 z"},"a":{"x_min":0,"x_max":420,"ha":420,"o":"m 235 426 q 263 426 288 408 q 312 390 327 360 q 342 330 342 292 l 342 91 q 342 72 349 58 q 356 45 372 45 q 386 45 394 51 q 402 57 404 58 q 406 58 407 55 q 408 52 408 50 q 408 39 403 31 q 397 26 384 17 q 370 8 356 1 q 341 -6 330 -6 q 309 -6 292 15 q 276 36 271 58 q 267 54 252 43 q 238 32 219 20 q 200 9 182 0 q 163 -8 150 -8 q 102 -8 69 24 q 36 57 36 104 q 36 134 52 156 q 69 177 85 183 q 113 193 148 204 q 182 216 212 227 q 242 238 256 244 q 264 247 266 252 q 268 256 268 269 l 268 295 q 268 317 257 338 q 246 360 227 374 q 208 389 184 389 q 159 389 147 373 q 135 357 130 328 q 121 281 84 281 q 68 281 60 294 q 51 307 51 322 q 51 325 53 334 q 55 342 58 346 q 73 360 101 379 q 129 398 164 412 q 200 426 235 426 z m 183 45 q 200 45 220 53 q 240 61 254 70 q 268 80 268 85 l 268 218 q 249 212 220 203 q 191 194 177 189 q 151 179 134 160 q 117 141 117 113 q 117 86 136 66 q 155 45 183 45 z"},"L":{"x_min":0,"x_max":550,"ha":550,"o":"m 202 113 q 202 111 202 107 q 202 98 202 84 q 202 69 203 57 q 204 45 207 43 q 217 36 232 34 q 246 33 277 33 l 332 33 q 360 33 394 40 q 427 46 447 60 q 465 73 480 96 q 496 119 508 158 q 510 164 522 164 q 540 164 546 158 q 532 118 516 73 q 499 28 494 -4 q 415 -4 337 -2 q 259 0 161 0 q 127 0 100 -2 q 73 -3 44 -3 q 40 1 40 11 q 41 21 44 25 q 50 25 66 26 q 82 28 96 32 q 111 36 112 41 q 116 53 116 72 q 117 91 117 113 l 117 530 q 117 552 116 572 q 116 591 112 603 q 111 609 96 612 q 82 615 66 616 q 50 618 44 618 q 41 622 40 632 q 40 642 44 646 q 74 645 103 644 q 132 642 160 642 q 189 642 216 644 q 244 645 274 646 q 278 642 278 632 q 277 622 274 618 q 268 618 252 616 q 236 615 222 612 q 208 609 206 603 q 203 593 202 577 q 202 561 202 542 q 202 539 202 536 q 202 533 202 530 z"},"3":{"x_min":0,"x_max":532,"ha":532,"o":"m 275 627 q 300 627 330 612 q 360 598 382 570 q 403 542 403 502 q 403 471 388 445 q 372 419 350 400 q 329 381 312 370 q 340 366 372 347 q 404 328 426 294 q 449 261 449 213 q 449 163 428 122 q 406 82 370 54 q 335 25 291 10 q 247 -5 201 -5 q 182 -5 154 0 q 125 6 102 18 q 98 21 90 32 q 82 43 82 55 q 82 76 94 89 q 107 102 123 102 q 143 102 154 86 q 166 71 178 59 q 192 45 212 40 q 231 34 250 34 q 276 34 302 48 q 329 63 347 96 q 365 130 365 186 q 365 226 347 256 q 329 287 300 305 q 272 323 240 323 q 224 323 208 318 q 191 313 182 311 q 176 319 176 330 q 176 337 178 340 q 217 349 252 367 q 287 385 308 414 q 330 442 330 484 q 330 523 303 549 q 276 575 234 575 q 203 575 180 560 q 157 546 144 530 q 130 515 125 511 q 121 511 117 518 q 113 525 113 532 q 128 555 152 576 q 175 598 206 612 q 237 627 275 627 z"},";":{"x_min":0,"x_max":226,"ha":226,"o":"m 124 120 q 137 120 149 113 q 154 104 160 88 q 167 73 167 45 q 167 24 156 -3 q 146 -30 128 -56 q 111 -83 91 -104 q 71 -126 52 -136 q 47 -136 42 -128 q 37 -119 37 -115 q 47 -107 62 -94 q 76 -81 88 -60 q 99 -38 99 -7 q 99 9 91 20 q 83 30 74 42 q 66 53 66 72 q 66 88 82 104 q 98 120 124 120 z m 60 368 q 60 390 76 406 q 92 421 114 421 q 136 421 152 406 q 167 390 167 368 q 167 346 152 330 q 136 313 114 313 q 92 313 76 330 q 60 346 60 368 z"},"J":{"x_min":0,"x_max":305,"ha":305,"o":"m 154 642 q 183 642 211 644 q 239 645 269 646 q 273 642 272 632 q 272 622 269 618 q 263 618 247 616 q 231 615 217 612 q 203 609 201 603 q 197 591 196 572 q 196 552 196 530 l 196 118 q 196 -4 166 -79 q 137 -154 86 -188 q 34 -222 -32 -222 q -43 -222 -64 -216 q -85 -211 -94 -204 q -102 -196 -102 -182 q -102 -159 -90 -143 q -78 -127 -55 -127 q -41 -127 -30 -136 q -18 -146 -8 -155 q 0 -162 12 -169 q 23 -176 36 -176 q 51 -176 65 -164 q 79 -151 89 -120 q 99 -89 105 -32 q 111 25 111 113 l 111 530 q 111 552 110 572 q 110 591 106 603 q 105 609 90 612 q 76 615 60 616 q 45 618 39 618 q 36 622 36 632 q 35 642 39 646 q 69 645 98 644 q 126 642 154 642 z"},"V":{"x_min":0,"x_max":623,"ha":623,"o":"m 107 642 q 139 642 169 644 q 199 645 228 646 q 230 642 230 630 q 229 619 226 618 q 222 618 208 616 q 193 613 180 606 q 167 600 167 586 q 167 570 185 520 q 193 498 206 462 q 220 425 236 381 q 252 337 268 293 q 285 249 298 212 q 312 175 320 152 q 329 128 330 126 q 332 130 343 156 q 354 183 370 224 q 387 265 407 314 q 427 364 448 415 q 468 466 486 511 q 493 528 498 547 q 503 566 503 579 q 503 595 490 603 q 476 611 460 614 q 445 617 439 617 q 435 619 435 630 q 435 642 439 646 q 466 645 490 644 q 514 642 541 642 q 564 642 578 642 q 591 643 604 644 q 617 645 636 646 q 638 642 637 630 q 636 618 634 618 q 628 618 606 613 q 585 608 572 593 q 563 583 548 552 q 534 522 523 494 q 496 427 474 371 q 451 315 430 263 q 408 211 385 155 q 362 99 333 31 q 325 12 316 5 q 306 -2 296 -2 q 293 -2 291 4 q 289 11 287 14 q 254 101 226 176 q 197 252 168 330 q 138 408 101 502 q 90 531 80 554 q 69 577 56 596 q 51 604 38 609 q 25 614 12 616 q 0 618 -6 618 q -7 618 -7 632 q -7 645 -6 646 q 28 645 50 644 q 73 642 107 642 z"},"\"":{"x_min":0,"x_max":273,"ha":273,"o":"m 89 683 q 104 683 114 670 q 114 660 113 636 q 112 613 110 584 q 108 555 106 527 q 103 499 101 480 q 96 469 81 462 q 75 462 72 468 q 56 521 47 558 q 38 594 38 614 q 38 628 44 644 q 51 660 62 672 q 74 683 89 683 z m 206 683 q 221 683 231 670 q 231 660 230 636 q 229 613 227 584 q 225 555 222 527 q 220 499 218 480 q 213 469 198 462 q 192 462 189 468 q 173 521 164 558 q 155 594 155 614 q 155 628 162 644 q 168 660 180 672 q 191 683 206 683 z"},"7":{"x_min":0,"x_max":532,"ha":532,"o":"m 398 618 q 417 618 439 620 q 461 621 465 621 q 471 621 471 612 q 471 602 462 584 q 453 567 443 547 l 186 -2 q 183 -5 176 -5 q 165 -5 149 0 q 133 6 133 13 q 158 51 188 105 q 218 159 250 219 q 281 279 310 337 q 338 395 360 442 q 383 490 396 518 q 410 547 410 547 l 162 547 q 133 547 118 529 q 103 511 92 472 q 91 466 80 466 q 77 466 70 468 q 64 470 61 472 q 74 512 86 554 q 97 595 102 618 z"},"S":{"x_min":0,"x_max":490,"ha":490,"o":"m 255 650 q 286 650 306 646 q 327 643 348 637 q 370 631 402 623 q 408 585 412 544 q 415 504 416 484 q 417 479 409 476 q 401 474 396 474 q 389 474 385 478 q 383 496 373 520 q 363 544 346 566 q 328 588 304 602 q 279 617 248 617 q 208 617 185 600 q 162 583 152 558 q 142 533 142 509 q 142 470 162 444 q 183 418 214 398 q 246 378 278 357 q 302 342 331 324 q 360 306 387 284 q 414 262 431 234 q 448 205 448 169 q 448 116 418 76 q 389 35 342 12 q 296 -10 244 -10 q 195 -10 150 1 q 104 12 68 19 q 62 48 58 81 q 53 114 50 139 q 48 164 48 170 q 53 175 60 178 q 66 182 73 182 q 82 182 84 173 q 87 159 96 134 q 106 110 124 84 q 143 58 172 40 q 202 23 246 23 q 293 23 328 54 q 363 86 363 143 q 363 184 344 207 q 326 230 296 247 q 267 264 233 283 q 196 305 156 332 q 117 358 90 394 q 63 430 63 479 q 63 531 90 570 q 118 608 162 629 q 206 650 255 650 z"},"}":{"x_min":0,"x_max":397,"ha":397,"o":"m 208 -225 q 205 -187 176 -138 q 151 -97 143 -54 q 135 -10 142 36 q 155 122 216 166 q 155 208 142 296 q 135 342 143 386 q 151 429 176 470 q 205 519 208 556 q 212 626 144 702 q 135 714 145 726 q 156 737 168 726 q 246 660 249 533 q 249 477 220 398 q 207 361 198 336 q 190 310 188 294 q 179 229 256 182 l 256 150 q 179 103 188 38 q 192 9 220 -66 q 251 -144 249 -201 q 248 -328 168 -395 q 156 -405 145 -394 q 135 -384 144 -371 q 212 -295 208 -225 z"},"Z":{"x_min":0,"x_max":618,"ha":618,"o":"m 211 611 q 162 611 128 577 q 94 543 78 483 q 75 479 67 479 q 60 479 52 482 q 44 485 42 487 q 55 521 62 562 q 70 604 74 653 q 90 651 112 648 q 135 646 154 646 l 344 646 q 385 646 416 647 q 447 648 478 650 q 508 652 549 655 q 552 654 559 647 q 566 640 566 634 q 566 633 548 606 q 530 580 500 537 q 471 494 434 441 q 398 388 359 331 q 320 274 283 222 q 246 169 217 126 q 188 84 170 59 q 153 34 153 34 l 408 34 q 440 34 462 44 q 483 53 499 69 q 520 90 532 117 q 543 144 551 165 q 552 167 556 168 q 560 168 564 168 q 572 168 578 165 q 585 162 588 159 q 577 121 568 94 q 560 68 554 46 q 547 25 541 0 l 52 0 q 44 0 38 5 q 31 10 34 14 l 449 611 z"},"x":{"x_min":0,"x_max":464,"ha":464,"o":"m 120 415 q 150 415 176 417 q 203 419 219 420 q 220 417 220 407 q 221 397 217 392 q 205 392 192 389 q 178 386 178 375 q 178 371 183 363 l 247 261 q 260 282 276 304 q 292 326 304 344 q 316 363 316 373 q 316 381 307 385 q 298 389 286 390 q 275 391 268 392 q 263 392 262 392 q 261 393 260 405 q 260 417 262 420 q 292 419 311 417 q 330 415 360 415 q 386 415 408 417 q 429 419 439 420 q 440 416 440 404 q 440 392 438 392 q 429 392 414 390 q 398 388 384 384 q 369 379 362 370 q 345 346 324 316 q 303 286 286 263 q 270 240 265 234 q 268 230 280 211 q 293 192 310 167 q 327 142 344 118 q 360 93 371 77 q 382 61 382 61 q 397 40 416 32 q 436 25 457 25 q 459 25 458 12 q 458 0 456 -3 q 429 -1 410 0 q 391 2 364 2 q 333 2 310 0 q 288 -1 256 -3 q 254 2 254 14 q 255 25 257 25 q 268 26 283 30 q 298 34 298 43 q 298 45 296 49 q 296 49 288 62 q 280 75 268 95 q 255 115 242 136 q 229 156 219 171 q 205 150 186 124 q 168 97 148 65 q 144 59 144 55 q 143 51 143 47 q 143 33 162 30 q 180 27 196 25 q 198 25 198 13 q 198 1 195 -3 q 167 -1 150 0 q 132 2 103 2 q 75 2 57 0 q 39 -1 11 -3 q 10 3 10 12 q 11 21 13 25 q 36 29 63 35 q 90 41 106 63 q 106 63 115 76 q 124 90 138 110 q 152 129 166 150 q 179 170 190 184 q 200 199 201 201 q 199 205 186 223 q 174 241 158 266 q 141 290 125 314 q 109 338 98 354 q 88 370 88 370 q 80 382 58 387 q 37 392 22 392 q 21 392 21 404 q 21 416 23 420 q 47 418 70 416 q 92 415 120 415 z"},")":{"x_min":0,"x_max":458,"ha":458,"o":"m 238 166 q 238 300 202 426 q 150 611 44 696 l 58 717 q 116 671 165 611 q 312 430 312 166 q 312 43 276 -68 q 213 -264 58 -386 l 44 -369 q 125 -298 175 -173 q 238 -12 238 166 z"},"&":{"x_min":0,"x_max":666,"ha":666,"o":"m 301 641 q 366 641 404 612 q 442 584 442 531 q 442 487 421 454 q 400 420 367 394 q 334 368 297 345 q 328 293 366 242 q 404 191 441 150 q 468 191 482 224 q 497 258 497 265 q 497 277 484 279 q 472 281 462 281 q 455 282 453 282 q 451 287 451 294 q 451 302 454 305 l 531 305 q 557 305 581 307 q 605 309 639 310 q 641 309 640 296 q 640 282 638 282 q 625 282 602 276 q 578 271 570 266 q 568 265 555 243 q 542 221 520 188 q 499 155 469 120 q 502 86 524 65 q 547 44 564 44 q 575 44 586 52 q 596 61 604 72 q 613 83 615 89 q 623 89 630 82 q 638 76 638 71 q 636 67 625 50 q 614 32 592 16 q 569 0 531 0 q 509 0 489 10 q 469 21 453 35 q 437 49 428 60 q 419 70 419 70 q 384 39 336 18 q 289 -3 241 -3 q 156 -3 104 38 q 52 80 52 154 q 52 201 76 236 q 99 270 136 296 q 173 321 214 342 q 194 377 176 417 q 157 457 157 507 q 157 544 176 574 q 195 605 228 623 q 260 641 301 641 z m 396 93 q 372 117 344 153 q 317 189 292 224 q 268 259 252 283 q 236 307 236 307 q 210 289 187 270 q 164 252 150 228 q 136 203 136 168 q 136 122 156 94 q 175 65 207 52 q 239 39 274 39 q 303 39 338 54 q 373 68 396 93 z m 306 605 q 275 605 252 584 q 229 564 229 530 q 229 494 242 456 q 256 419 279 376 q 325 402 350 432 q 376 462 376 518 q 376 551 358 578 q 339 605 306 605 z"},"_":{"x_min":0,"x_max":493,"ha":493,"o":"m 14 -32 q 14 -32 16 -20 q 17 -9 20 2 q 23 13 28 13 l 467 13 q 471 13 471 8 q 471 1 468 -10 q 466 -20 461 -36 q 460 -40 458 -41 q 455 -42 455 -42 l 21 -42 q 21 -42 18 -40 q 14 -39 14 -32 z"},"v":{"x_min":0,"x_max":461,"ha":461,"o":"m 100 415 q 128 415 148 417 q 169 419 198 420 q 200 416 199 404 q 198 392 194 392 q 191 392 179 391 q 167 390 156 386 q 146 383 146 375 q 146 373 147 371 l 254 107 q 254 107 262 128 q 270 150 284 184 q 297 217 312 256 q 327 295 341 329 q 345 338 346 346 q 347 355 347 360 q 347 375 331 384 q 315 392 290 392 q 286 392 286 404 q 286 416 290 420 q 313 419 326 417 q 339 415 369 415 q 397 415 414 417 q 431 419 460 420 q 463 416 462 404 q 460 392 457 392 q 453 392 440 389 q 428 386 415 379 q 402 372 396 358 q 374 306 356 264 q 339 222 322 182 q 306 143 288 100 q 270 58 249 6 q 247 0 238 -6 q 229 -11 224 -11 q 217 -11 215 -7 q 168 106 132 198 q 97 290 56 372 q 49 387 31 390 q 13 392 4 392 q 2 392 2 392 q 1 396 0 404 q -1 413 2 420 q 32 419 51 417 q 70 415 100 415 z"},"O":{"x_min":0,"x_max":730,"ha":730,"o":"m 364 651 q 429 651 486 627 q 544 603 588 558 q 632 514 658 454 q 683 393 683 320 q 683 251 658 192 q 632 132 588 86 q 544 41 486 16 q 429 -10 364 -10 q 300 -10 242 14 q 185 38 142 82 q 98 127 73 188 q 48 248 48 320 q 48 389 73 449 q 98 509 142 554 q 185 600 242 626 q 300 651 364 651 z m 350 618 q 295 618 256 594 q 217 569 192 529 q 168 489 156 440 q 145 391 145 342 q 145 285 160 228 q 176 172 206 126 q 236 79 280 51 q 323 23 380 23 q 435 23 474 48 q 513 72 538 113 q 563 154 574 204 q 586 253 586 302 q 586 359 570 415 q 555 471 524 517 q 494 563 450 590 q 407 618 350 618 z"},"(":{"x_min":0,"x_max":458,"ha":458,"o":"m 220 166 q 220 -12 283 -173 q 332 -297 415 -369 l 400 -386 q 245 -264 182 -68 q 146 43 146 166 q 146 428 294 611 q 318 640 344 667 q 371 694 400 717 l 415 696 q 308 610 256 426 q 220 300 220 166 z"},"C":{"x_min":0,"x_max":658,"ha":658,"o":"m 377 651 q 425 651 478 647 q 530 643 584 631 q 584 631 588 610 q 591 590 595 562 q 599 535 602 512 q 606 490 606 486 q 607 482 600 478 q 593 474 585 474 q 578 474 573 477 q 571 488 564 511 q 556 534 536 559 q 517 584 480 602 q 443 619 382 619 q 328 619 284 594 q 240 570 208 528 q 177 487 160 436 q 144 386 144 335 q 144 278 160 223 q 175 168 206 124 q 238 79 286 52 q 333 26 397 26 q 442 26 474 40 q 505 54 526 73 q 555 99 568 131 q 581 163 586 187 q 603 189 617 179 q 617 172 614 151 q 610 130 605 106 q 600 81 594 62 q 588 43 583 38 q 543 16 492 5 q 441 -6 373 -6 q 301 -6 241 20 q 181 45 138 90 q 94 134 70 192 q 47 249 47 314 q 47 383 72 444 q 96 504 140 551 q 184 598 244 624 q 305 651 377 651 z"},"W":{"x_min":0,"x_max":878,"ha":878,"o":"m 115 642 q 147 642 169 644 q 191 645 220 646 q 222 642 222 630 q 221 619 218 618 q 214 618 200 616 q 186 613 173 606 q 160 600 160 586 q 160 582 164 565 q 168 548 175 522 q 186 482 205 420 q 224 357 246 286 q 268 214 288 145 q 305 202 326 268 q 347 334 368 400 q 389 466 407 522 q 425 578 436 614 q 441 628 452 637 q 463 646 471 646 q 475 646 482 631 q 484 625 494 592 q 505 559 521 508 q 537 456 557 394 q 577 333 598 269 q 619 205 638 147 q 654 203 667 248 q 680 293 692 334 q 703 374 715 417 q 727 460 740 512 q 745 529 748 548 q 751 567 751 580 q 751 596 737 604 q 723 612 707 615 q 691 618 685 618 q 681 620 681 631 q 681 642 685 646 q 712 645 738 644 q 764 642 791 642 q 814 642 826 642 q 839 643 852 644 q 864 645 883 646 q 885 642 884 630 q 883 618 881 618 q 875 618 854 612 q 834 606 819 593 q 809 584 801 566 q 793 549 784 519 q 757 427 735 349 q 713 271 692 195 q 670 119 644 31 q 640 18 628 8 q 617 -2 607 -2 q 604 -2 601 4 q 598 11 597 14 q 585 49 569 98 q 553 147 535 202 q 517 256 500 308 q 483 360 469 402 q 455 445 446 470 q 438 496 438 496 l 438 496 q 417 429 399 372 q 381 314 364 260 q 346 207 328 152 q 311 96 291 31 q 287 18 275 8 q 263 -2 253 -2 q 250 -2 248 4 q 245 11 244 14 q 216 105 192 184 q 167 262 142 343 q 117 424 87 520 q 78 549 72 568 q 66 586 52 599 q 42 609 24 614 q 5 618 -4 618 q -5 618 -5 632 q -5 645 -4 646 q 30 645 56 644 q 81 642 115 642 z"},"A":{"x_min":0,"x_max":612,"ha":612,"o":"m 93 136 q 93 136 102 160 q 112 185 128 227 q 144 269 164 320 q 185 372 206 426 q 227 481 246 531 q 266 581 281 619 q 285 627 298 637 q 312 647 319 647 q 321 647 322 646 q 322 646 324 645 l 523 123 q 545 65 548 59 q 553 48 568 40 q 582 32 596 28 q 611 25 615 25 q 619 20 618 10 q 617 -1 616 -3 q 587 -1 564 0 q 541 2 509 2 q 475 2 452 0 q 430 -1 396 -3 q 392 1 392 11 q 393 21 397 25 q 406 25 425 28 q 444 32 451 38 q 455 42 455 52 q 455 61 448 82 q 442 104 432 131 q 422 158 412 184 q 402 209 396 226 q 389 242 389 242 q 389 242 387 244 q 385 246 383 246 q 368 247 346 247 q 324 247 305 247 q 300 247 295 247 q 290 247 286 247 q 256 247 235 246 q 214 246 181 244 q 180 244 178 242 q 176 241 176 241 q 176 241 168 221 q 161 201 150 174 q 140 146 132 122 q 123 97 120 80 q 118 63 118 53 q 118 42 134 36 q 149 29 166 27 q 182 25 186 25 q 188 23 189 12 q 190 2 188 -3 q 169 -2 156 -1 q 142 0 128 1 q 115 2 93 2 q 71 2 56 1 q 41 0 26 -1 q 11 -2 -12 -3 q -14 -1 -14 10 q -14 20 -12 25 q -3 25 18 30 q 40 34 47 44 q 62 63 72 86 q 83 110 93 136 z m 284 529 l 195 291 q 195 291 196 289 q 196 287 197 287 q 216 286 242 286 q 269 285 285 285 q 308 285 326 286 q 345 287 367 288 q 369 288 370 290 q 370 293 370 293 z"},"f":{"x_min":0,"x_max":300,"ha":300,"o":"m 263 681 q 285 681 292 679 q 298 677 309 669 q 312 666 316 658 q 319 650 319 642 q 319 616 304 610 q 290 603 280 603 q 273 603 266 606 q 259 609 251 613 q 243 618 238 620 q 233 622 223 622 q 201 622 184 599 q 168 576 169 530 l 169 409 l 285 409 q 289 409 289 401 q 289 399 289 398 q 289 382 276 369 l 169 369 l 169 113 q 169 91 170 72 q 170 53 174 41 q 176 36 190 32 q 203 28 218 26 q 234 25 240 25 q 243 21 244 11 q 244 1 240 -3 q 210 -1 185 0 q 160 2 131 2 q 103 2 80 0 q 58 -1 28 -3 q 24 1 24 11 q 25 21 28 25 q 34 25 48 26 q 62 28 75 32 q 88 36 89 41 q 93 53 94 72 q 94 91 94 113 l 94 369 l 37 369 q 35 369 34 372 q 33 376 33 378 q 33 380 39 388 q 45 395 52 402 q 58 409 58 409 l 94 409 l 94 428 q 94 481 112 527 q 129 573 156 608 q 183 642 212 662 q 241 681 263 681 z"},"Q":{"x_min":0,"x_max":729,"ha":729,"o":"m 364 651 q 429 651 486 627 q 544 603 588 558 q 632 514 658 454 q 683 393 683 320 q 683 245 653 181 q 623 117 572 71 q 520 25 455 4 q 490 -13 514 -28 q 538 -43 559 -54 q 580 -66 606 -72 q 631 -79 669 -79 q 698 -79 716 -76 q 733 -74 738 -73 q 743 -73 748 -75 q 754 -77 756 -80 q 757 -81 757 -83 q 717 -104 678 -118 q 640 -133 595 -133 q 556 -133 520 -117 q 485 -101 449 -78 q 413 -56 374 -34 q 334 -12 286 0 q 218 17 164 62 q 110 106 79 172 q 48 239 48 320 q 48 389 73 449 q 98 509 142 554 q 185 600 242 626 q 300 651 364 651 z m 350 618 q 295 618 256 594 q 217 569 192 529 q 168 489 156 440 q 145 391 145 342 q 145 285 160 228 q 176 172 206 126 q 236 79 280 51 q 323 23 380 23 q 435 23 474 48 q 513 72 538 113 q 563 154 574 204 q 586 253 586 302 q 586 359 570 415 q 555 471 524 517 q 494 563 450 590 q 407 618 350 618 z"},"w":{"x_min":0,"x_max":704,"ha":704,"o":"m 99 415 q 127 415 148 417 q 168 419 197 420 q 199 416 198 405 q 198 394 195 392 q 191 392 179 390 q 167 389 156 384 q 146 380 146 369 q 146 367 151 354 q 160 331 185 271 q 210 211 251 114 q 289 209 310 260 q 330 312 330 319 q 330 324 324 342 q 317 359 307 373 q 299 385 286 388 q 273 392 264 392 q 260 394 260 405 q 260 416 264 420 q 284 419 296 418 q 309 417 321 416 q 333 415 353 415 q 381 415 403 417 q 425 419 454 420 q 456 416 456 406 q 456 395 453 392 q 405 392 405 360 q 405 355 407 350 q 413 331 434 276 q 456 221 496 117 q 525 188 548 246 q 572 305 582 336 q 585 344 586 350 q 587 356 587 359 q 587 373 577 380 q 567 386 554 388 q 540 391 529 392 q 526 394 526 405 q 525 416 529 420 q 549 419 560 418 q 571 417 582 416 q 594 415 614 415 q 642 415 658 417 q 674 419 703 420 q 704 418 704 407 q 705 396 700 392 q 696 392 682 389 q 669 386 654 378 q 640 371 634 356 q 607 288 586 234 q 564 181 542 128 q 521 74 492 6 q 490 0 484 -6 q 477 -11 472 -11 q 462 -11 460 -7 l 352 275 l 246 8 q 245 6 238 -2 q 230 -11 222 -11 q 215 -11 213 -7 q 190 50 172 96 q 153 141 136 184 q 118 226 98 270 q 79 315 55 370 q 48 386 30 389 q 11 392 2 392 q 0 397 0 406 q 0 416 2 420 q 32 419 50 417 q 69 415 99 415 z"},"-":{"x_min":0,"x_max":368,"ha":368,"o":"m 69 255 q 69 255 90 256 q 111 257 143 259 q 175 261 208 262 q 242 264 268 266 q 295 267 305 267 q 312 267 312 258 q 312 233 299 205 q 276 204 238 202 q 199 200 154 198 q 108 196 63 194 q 57 194 57 205 q 57 219 60 232 q 64 244 69 255 z"},"E":{"x_min":0,"x_max":573,"ha":573,"o":"m 160 642 q 229 642 312 645 q 395 648 474 648 q 479 611 487 580 q 495 549 502 516 q 497 511 485 511 q 472 511 471 518 q 455 577 426 593 q 397 609 358 609 l 274 609 q 268 609 252 608 q 236 608 222 606 q 208 604 206 599 q 203 589 202 573 q 202 557 202 540 q 202 533 202 529 l 202 347 q 202 343 215 342 q 228 341 244 341 l 295 341 q 330 341 350 343 q 369 345 378 352 q 387 359 392 373 q 397 387 403 411 q 404 418 417 418 q 429 418 434 413 l 434 229 q 430 225 418 225 q 406 225 403 232 q 396 260 392 272 q 387 285 384 290 q 380 294 375 297 q 370 301 352 302 q 334 304 312 304 q 291 305 272 305 q 259 305 242 304 q 226 304 214 302 q 202 301 202 296 l 202 110 q 202 108 202 104 q 202 90 202 68 q 203 46 207 43 q 217 36 232 34 q 246 33 277 33 l 324 33 q 359 33 393 40 q 427 47 447 60 q 470 74 483 100 q 496 127 508 158 q 510 164 522 164 q 540 164 546 158 q 532 118 516 73 q 499 28 494 -4 q 415 -4 337 -2 q 259 0 161 0 q 127 0 100 -2 q 73 -3 44 -3 q 40 1 40 11 q 41 21 44 25 q 50 25 66 26 q 82 28 96 32 q 111 36 112 41 q 116 53 116 72 q 117 91 117 113 l 117 530 q 117 552 116 572 q 116 591 112 603 q 111 609 96 612 q 82 615 66 616 q 50 618 44 618 q 41 622 40 632 q 40 642 44 646 q 74 645 103 644 q 132 642 160 642 z"},"s":{"x_min":0,"x_max":360,"ha":360,"o":"m 190 427 q 219 427 238 422 q 258 418 290 414 q 295 392 298 362 q 301 333 302 307 q 302 302 292 302 q 288 302 284 303 q 279 304 275 307 q 270 325 258 346 q 247 367 230 382 q 214 396 193 396 q 158 396 141 378 q 124 361 124 335 q 124 310 136 294 q 148 279 168 268 q 187 256 209 243 q 231 230 257 214 q 283 198 302 176 q 321 155 321 124 q 321 85 300 54 q 279 24 245 6 q 211 -11 171 -11 q 137 -11 113 -4 q 89 2 57 8 q 53 19 49 38 q 45 57 42 77 q 40 97 40 109 q 48 115 58 115 q 63 115 66 113 q 72 93 87 72 q 102 50 124 36 q 146 21 172 21 q 202 21 222 39 q 242 57 242 91 q 242 121 224 140 q 206 158 179 172 q 152 187 123 203 q 94 220 72 244 q 49 269 49 308 q 49 344 70 371 q 90 398 122 412 q 154 427 190 427 z"},">":{"x_min":0,"x_max":481,"ha":481,"o":"m 47 34 q 47 37 48 38 q 50 40 50 40 l 373 204 l 56 365 q 56 365 54 366 q 53 368 53 373 q 53 387 59 404 q 65 420 68 420 q 69 420 73 418 l 435 235 q 451 227 451 212 q 451 199 448 189 q 446 179 435 173 l 68 -13 q 64 -15 63 -15 q 60 -15 56 -4 q 52 6 50 18 q 47 30 47 34 z"},"l":{"x_min":0,"x_max":249,"ha":249,"o":"m 87 545 q 87 556 86 572 q 86 587 82 596 q 78 607 60 610 q 43 613 23 613 q 22 613 22 626 q 21 638 24 639 q 61 643 96 654 q 131 664 162 678 q 166 678 170 672 q 173 667 173 662 q 173 662 168 640 q 162 618 162 577 l 162 113 q 162 91 162 72 q 163 53 167 41 q 169 36 182 32 q 194 28 208 26 q 223 25 229 25 q 232 21 232 11 q 233 1 229 -3 q 199 -1 176 0 q 153 2 124 2 q 96 2 74 0 q 51 -1 21 -3 q 17 1 18 11 q 18 21 21 25 q 27 25 41 26 q 55 28 68 32 q 81 36 82 41 q 86 53 86 72 q 87 91 87 113 z"},"8":{"x_min":0,"x_max":532,"ha":532,"o":"m 271 628 q 315 628 352 611 q 388 594 410 562 q 432 530 432 484 q 432 446 414 418 q 396 390 370 370 q 345 350 322 336 q 315 334 322 330 q 352 314 382 288 q 411 262 430 230 q 450 198 450 163 q 450 114 424 75 q 398 36 356 14 q 313 -9 264 -9 q 211 -9 170 11 q 128 31 105 67 q 82 103 82 150 q 82 182 96 208 q 110 234 131 254 q 152 274 174 288 q 195 302 209 311 q 213 314 209 316 q 189 328 166 350 q 142 373 126 403 q 109 433 109 469 q 109 511 132 547 q 154 583 191 606 q 228 628 271 628 z m 266 26 q 314 26 342 56 q 371 86 371 135 q 371 165 354 192 q 337 218 314 238 q 291 259 271 272 q 251 285 246 288 q 242 290 240 290 q 237 290 236 289 q 196 264 178 232 q 159 200 159 153 q 159 113 175 84 q 191 56 216 41 q 240 26 266 26 z m 266 594 q 231 594 206 562 q 182 530 182 486 q 182 449 200 424 q 217 398 241 382 q 265 366 283 355 q 285 354 289 354 q 290 354 290 354 q 293 354 295 355 q 325 375 343 405 q 361 435 361 475 q 361 504 350 531 q 338 558 317 576 q 296 594 266 594 z"},"\\":{"x_min":0,"x_max":344,"ha":344,"o":"m 43 702 q 54 702 63 699 q 73 696 77 693 q 82 690 82 688 l 330 -179 l 328 -181 q 326 -183 323 -184 q 317 -186 312 -186 q 298 -186 287 -178 q 275 -169 274 -164 l 30 693 q 33 702 43 702 z"},"e":{"x_min":0,"x_max":419,"ha":419,"o":"m 108 242 q 107 180 129 138 q 151 96 188 76 q 225 55 268 55 q 295 55 317 64 q 339 74 354 86 q 369 99 375 106 q 376 106 380 102 q 383 99 383 93 q 383 85 377 75 q 368 61 349 42 q 330 22 301 7 q 272 -8 234 -8 q 177 -8 133 19 q 89 46 64 92 q 39 138 39 195 q 39 244 56 286 q 74 329 102 360 q 131 392 165 410 q 199 428 231 428 q 275 428 304 413 q 332 398 348 376 q 365 354 372 332 q 378 310 378 295 q 378 274 373 262 q 368 250 354 249 q 345 248 318 248 q 292 247 258 246 q 224 245 191 244 q 158 243 135 242 q 112 242 108 242 z m 113 278 l 272 278 q 281 278 288 283 q 294 288 295 301 q 296 313 288 335 q 280 357 262 375 q 245 393 215 393 q 184 393 164 376 q 144 358 132 336 q 121 313 116 296 q 112 278 113 278 z"},"b":{"x_min":0,"x_max":486,"ha":486,"o":"m 206 -7 q 195 -7 172 -2 q 150 4 134 8 q 131 9 126 10 q 113 14 99 16 q 85 19 71 14 q 67 14 62 22 q 58 31 58 35 q 65 50 68 71 q 70 92 70 107 l 70 545 q 70 555 70 571 q 69 587 65 596 q 61 607 43 610 q 25 613 5 613 q 4 613 4 626 q 3 638 6 639 q 43 643 78 654 q 114 664 145 678 q 149 678 152 672 q 156 667 156 662 q 156 662 150 640 q 145 618 145 577 l 145 385 q 145 381 146 376 q 147 371 151 375 q 159 381 180 394 q 201 406 226 417 q 251 428 269 428 q 313 428 346 410 q 380 391 402 362 q 425 332 436 296 q 448 261 448 228 q 448 164 416 110 q 385 57 330 25 q 276 -7 206 -7 z m 222 370 q 203 370 180 360 q 157 351 150 344 q 145 339 145 333 l 145 96 q 145 75 159 59 q 173 43 194 34 q 215 26 236 26 q 271 26 300 50 q 330 75 348 112 q 366 150 366 189 q 366 274 326 322 q 287 370 222 370 z"},"%":{"x_min":0,"x_max":651,"ha":651,"o":"m 468 306 q 511 306 542 284 q 574 262 592 226 q 610 191 610 148 q 610 109 593 74 q 576 38 544 16 q 512 -7 467 -7 q 427 -7 394 14 q 360 35 340 70 q 320 105 320 148 q 320 192 339 228 q 358 263 392 284 q 425 306 468 306 z m 186 630 q 229 630 261 608 q 293 587 311 552 q 329 516 329 473 q 329 434 312 398 q 295 363 263 340 q 231 317 186 317 q 146 317 112 338 q 79 359 59 394 q 39 430 39 473 q 39 517 58 552 q 76 588 110 609 q 143 630 186 630 z m 182 606 q 153 606 136 588 q 118 569 110 541 q 102 513 102 484 q 102 451 114 418 q 126 385 146 364 q 167 342 191 342 q 220 342 236 361 q 252 380 258 408 q 265 437 265 465 q 265 498 255 530 q 245 563 226 584 q 208 606 182 606 z m 464 282 q 435 282 417 264 q 399 245 391 217 q 383 189 383 160 q 383 126 396 94 q 408 61 429 40 q 450 18 474 18 q 503 18 518 37 q 534 56 540 84 q 546 113 546 141 q 546 174 536 206 q 527 239 508 260 q 490 282 464 282 z m 584 609 l 112 0 q 109 -4 99 -8 q 89 -12 80 -12 q 70 -12 66 -7 q 63 -2 62 -1 l 533 609 q 537 614 543 618 q 549 621 553 621 q 574 621 576 618 q 577 616 584 609 z"},"m":{"x_min":0,"x_max":771,"ha":771,"o":"m 312 428 q 356 428 384 410 q 411 391 423 347 q 455 376 494 402 q 532 428 567 428 q 620 428 647 406 q 674 384 684 338 q 693 292 693 221 l 693 113 q 693 91 694 72 q 694 53 698 41 q 700 36 712 32 q 725 28 739 26 q 753 25 759 25 q 762 21 762 11 q 763 1 759 -3 q 729 -1 706 0 q 684 2 655 2 q 627 2 604 0 q 581 -1 551 -3 q 547 1 548 11 q 548 21 551 25 q 557 25 572 26 q 586 28 599 32 q 612 36 613 41 q 616 51 616 66 q 617 82 617 101 q 617 104 617 107 q 617 110 617 113 l 617 218 q 617 267 610 301 q 604 335 585 353 q 566 371 526 371 q 502 371 480 358 q 458 346 444 332 q 430 319 430 315 q 430 314 430 310 q 431 305 431 303 q 433 289 434 268 q 435 247 435 233 l 435 113 q 435 91 436 72 q 436 53 440 41 q 442 36 454 32 q 467 28 481 26 q 495 25 501 25 q 504 21 504 11 q 505 1 501 -3 q 471 -1 448 0 q 426 2 397 2 q 369 2 346 0 q 323 -1 293 -3 q 289 1 290 11 q 290 21 293 25 q 299 25 314 26 q 328 28 341 32 q 354 36 355 41 q 359 53 360 72 q 360 91 360 113 l 360 213 q 360 302 340 336 q 321 371 268 371 q 246 371 225 360 q 204 349 190 336 q 177 324 177 317 l 177 113 q 177 91 178 72 q 178 53 182 41 q 184 36 196 32 q 209 28 223 26 q 237 25 243 25 q 246 21 246 11 q 247 1 243 -3 q 213 -1 190 0 q 168 2 139 2 q 111 2 88 0 q 65 -1 35 -3 q 31 1 32 11 q 32 21 35 25 q 41 25 56 26 q 70 28 83 32 q 96 36 97 41 q 101 53 102 72 q 102 91 102 113 l 102 291 q 102 301 102 319 q 101 337 97 346 q 94 355 80 358 q 66 362 52 362 q 38 363 34 363 q 33 365 32 375 q 31 385 34 389 q 72 394 108 404 q 144 414 173 430 q 177 430 180 424 q 184 418 184 414 q 184 411 182 400 q 181 389 180 378 q 178 367 178 363 q 178 359 180 359 q 181 359 183 361 q 195 372 215 388 q 235 403 260 416 q 286 428 312 428 z"},"#":{"x_min":0,"x_max":468,"ha":468,"o":"m 404 360 l 340 360 l 318 222 l 383 222 q 390 222 390 212 q 391 201 388 189 q 384 177 377 174 l 311 174 l 295 75 q 294 72 288 67 q 282 62 271 62 q 264 62 262 64 q 260 66 260 66 l 277 174 l 152 174 l 136 75 q 135 72 130 67 q 125 62 114 62 q 107 62 105 64 q 103 66 103 66 l 120 174 l 55 174 q 49 174 50 185 q 50 196 54 208 q 59 220 65 222 l 128 222 l 150 360 l 83 360 q 77 360 77 371 q 77 382 81 394 q 85 406 91 408 l 157 408 l 173 506 q 175 513 178 516 q 181 519 195 519 q 202 519 204 518 q 206 518 208 516 l 190 408 l 315 408 l 331 506 q 333 513 336 516 q 338 519 352 519 q 359 519 361 518 q 363 518 365 516 l 348 408 l 410 408 q 417 408 418 397 q 418 386 414 374 q 411 363 404 360 z m 183 360 l 160 222 l 285 222 l 307 360 z"},",":{"x_min":0,"x_max":196,"ha":196,"o":"m 104 120 q 117 120 129 113 q 134 104 140 88 q 146 73 146 45 q 146 24 136 -3 q 125 -30 108 -56 q 90 -83 70 -104 q 50 -126 31 -136 q 26 -136 22 -128 q 17 -119 17 -115 q 27 -107 42 -94 q 56 -81 67 -60 q 78 -38 78 -7 q 78 9 70 20 q 62 30 54 42 q 46 53 46 72 q 46 88 62 104 q 78 120 104 120 z"},"n":{"x_min":0,"x_max":519,"ha":519,"o":"m 315 428 q 368 428 395 406 q 422 384 432 338 q 441 292 441 221 l 441 113 q 441 91 442 72 q 442 53 446 41 q 448 36 460 32 q 473 28 487 26 q 501 25 507 25 q 510 21 510 11 q 511 1 507 -3 q 477 -1 454 0 q 432 2 403 2 q 375 2 352 0 q 329 -1 299 -3 q 295 1 296 11 q 296 21 299 25 q 305 25 320 26 q 334 28 347 32 q 360 36 361 41 q 365 53 366 72 q 366 91 366 113 l 366 211 q 366 272 358 306 q 350 341 329 356 q 308 371 270 371 q 252 371 230 360 q 209 348 193 335 q 177 322 177 317 l 177 113 q 177 91 178 72 q 178 53 182 41 q 184 36 196 32 q 209 28 223 26 q 237 25 243 25 q 246 21 246 11 q 247 1 243 -3 q 213 -1 190 0 q 168 2 139 2 q 111 2 88 0 q 65 -1 35 -3 q 31 1 32 11 q 32 21 35 25 q 41 25 56 26 q 70 28 83 32 q 96 36 97 41 q 101 53 102 72 q 102 91 102 113 l 102 291 q 102 301 102 319 q 101 337 97 346 q 94 355 80 358 q 66 362 52 362 q 38 363 34 363 q 33 365 32 375 q 31 385 34 389 q 72 394 108 404 q 144 414 173 430 q 177 430 180 424 q 184 418 184 414 q 184 411 182 398 q 181 386 180 374 q 178 362 178 358 q 178 354 180 354 q 181 354 183 356 q 193 367 216 384 q 238 401 265 414 q 292 428 315 428 z"},"h":{"x_min":0,"x_max":503,"ha":503,"o":"m 300 428 q 353 428 380 406 q 407 384 416 338 q 426 292 426 221 l 426 113 q 426 91 426 72 q 427 53 431 41 q 433 36 446 32 q 458 28 472 26 q 487 25 493 25 q 496 21 496 11 q 497 1 493 -3 q 463 -1 440 0 q 417 2 388 2 q 360 2 338 0 q 315 -1 285 -3 q 281 1 282 11 q 282 21 285 25 q 291 25 305 26 q 319 28 332 32 q 345 36 346 41 q 350 53 350 72 q 351 91 351 113 l 351 211 q 351 272 343 306 q 335 341 314 356 q 293 371 255 371 q 237 371 216 360 q 194 348 178 335 q 162 322 162 317 l 162 113 q 162 91 162 72 q 163 53 167 41 q 169 36 182 32 q 194 28 208 26 q 223 25 229 25 q 232 21 232 11 q 233 1 229 -3 q 199 -1 176 0 q 153 2 124 2 q 96 2 74 0 q 51 -1 21 -3 q 17 1 18 11 q 18 21 21 25 q 27 25 41 26 q 55 28 68 32 q 81 36 82 41 q 86 53 86 72 q 87 91 87 113 l 87 545 q 87 555 86 571 q 86 587 82 596 q 78 607 60 610 q 43 613 23 613 q 22 613 22 626 q 21 638 24 639 q 61 643 96 654 q 131 664 162 678 q 166 678 170 672 q 173 667 173 662 q 173 662 168 640 q 162 618 162 577 l 162 356 q 162 354 165 354 q 166 354 168 356 q 178 367 200 384 q 223 401 250 414 q 277 428 300 428 z"},"z":{"x_min":0,"x_max":436,"ha":436,"o":"m 145 421 l 270 421 q 310 421 334 423 q 359 425 389 429 q 392 424 392 418 q 392 413 392 408 q 392 406 392 405 q 392 405 378 385 q 364 365 341 332 q 318 299 290 260 q 263 221 235 182 q 207 142 184 108 q 161 75 147 55 q 133 35 133 34 l 270 34 q 315 34 342 62 q 368 91 377 122 q 378 128 384 128 q 399 128 409 116 q 409 116 401 96 q 393 77 383 50 q 373 23 365 0 l 48 0 q 43 2 38 8 q 33 14 33 20 q 33 21 33 23 q 33 25 34 26 l 285 387 l 148 388 q 120 388 106 374 q 91 361 84 344 q 78 328 74 319 q 70 311 53 311 q 42 311 42 313 q 45 324 50 357 q 56 390 58 429 q 58 429 72 427 q 87 425 108 423 q 128 421 145 421 z"},"B":{"x_min":0,"x_max":582,"ha":582,"o":"m 298 644 q 331 644 366 636 q 401 629 430 612 q 459 596 477 568 q 495 540 495 498 q 495 461 478 431 q 460 401 436 382 q 413 363 396 356 q 393 354 396 352 q 414 351 438 340 q 462 329 486 308 q 509 288 524 259 q 539 230 539 194 q 539 152 524 116 q 510 80 474 50 q 439 21 382 10 q 325 -2 269 -3 l 44 -3 q 40 1 40 11 q 41 21 44 25 q 50 25 66 26 q 82 28 96 32 q 111 36 112 41 q 116 53 116 72 q 117 91 117 113 l 117 530 q 117 552 116 572 q 116 591 112 603 q 111 609 96 612 q 82 615 66 616 q 50 618 44 618 q 41 622 40 632 q 40 642 44 646 q 74 645 103 644 q 132 642 160 642 q 189 642 222 643 q 255 644 298 644 z m 202 324 l 202 112 q 202 105 202 90 q 203 76 205 63 q 207 50 210 46 q 221 34 240 31 q 260 28 287 28 q 324 28 360 39 q 395 50 419 82 q 443 113 443 172 q 443 209 429 244 q 415 278 376 301 q 336 324 261 324 z m 202 361 l 283 361 q 327 361 354 378 q 381 395 394 422 q 406 448 406 476 q 406 541 364 576 q 323 612 255 612 q 246 612 228 611 q 209 610 206 603 q 203 595 202 578 q 202 561 202 542 q 202 538 202 535 q 202 532 202 529 z"},"K":{"x_min":0,"x_max":641,"ha":641,"o":"m 160 642 q 189 642 216 644 q 244 645 274 646 q 278 642 278 630 q 277 619 274 615 q 268 615 252 614 q 236 612 222 609 q 208 606 206 600 q 203 590 202 574 q 202 558 202 539 q 202 536 202 533 q 202 530 202 527 l 202 333 q 213 340 231 356 q 249 372 270 392 q 292 413 312 432 q 350 470 372 492 q 393 513 407 529 q 421 545 436 564 q 441 570 446 579 q 450 588 450 595 q 450 606 440 610 q 429 615 416 616 q 404 616 398 616 q 396 616 395 616 q 393 621 393 630 q 393 639 395 646 q 422 645 451 643 q 480 641 507 641 q 539 641 562 643 q 584 645 613 646 q 615 642 615 629 q 615 616 611 616 q 607 616 590 614 q 572 613 552 606 q 531 598 514 580 q 472 534 436 498 q 401 463 366 430 q 331 396 288 355 q 286 352 288 348 q 359 266 420 194 q 482 123 538 70 q 556 54 580 41 q 605 28 645 25 q 649 21 647 10 q 645 -1 644 -3 q 595 -3 558 0 q 520 3 505 8 q 495 12 477 21 q 459 30 439 50 q 429 61 398 96 q 366 130 320 182 q 274 234 219 297 q 217 300 210 300 q 206 300 202 298 l 202 116 q 202 113 202 110 q 202 107 202 104 q 202 85 202 70 q 203 54 206 44 q 208 39 222 35 q 236 31 252 30 q 268 28 274 28 q 277 24 278 12 q 278 1 274 -3 q 244 -1 216 0 q 189 2 160 2 q 132 2 103 0 q 74 -1 44 -3 q 40 1 40 12 q 41 24 44 28 q 50 28 66 30 q 82 31 96 35 q 111 39 112 44 q 116 56 116 75 q 117 94 117 116 l 117 527 q 117 549 116 568 q 116 588 112 600 q 111 606 96 609 q 82 612 66 614 q 50 615 44 615 q 41 619 40 630 q 40 642 44 646 q 74 645 103 644 q 132 642 160 642 z"},"R":{"x_min":0,"x_max":606,"ha":606,"o":"m 298 644 q 331 644 366 633 q 401 622 430 601 q 460 580 478 548 q 496 517 496 475 q 496 440 476 407 q 457 374 426 349 q 396 324 363 313 q 389 270 413 234 q 437 198 463 162 q 489 127 521 84 q 542 56 566 42 q 591 28 631 25 q 635 21 633 10 q 631 -1 630 -3 q 581 -3 548 0 q 516 4 501 9 q 491 13 473 22 q 455 30 438 52 q 432 60 416 83 q 400 106 378 139 q 356 172 331 210 q 306 247 283 283 q 275 295 253 295 l 202 295 l 202 113 q 202 110 202 107 q 202 104 202 101 q 202 82 202 66 q 203 51 206 41 q 208 36 222 32 q 236 28 252 26 q 268 25 274 25 q 277 21 278 11 q 278 1 274 -3 q 244 -1 216 0 q 189 2 160 2 q 132 2 103 0 q 74 -1 44 -3 q 40 1 40 11 q 41 21 44 25 q 50 25 66 26 q 82 28 96 32 q 111 36 112 41 q 116 53 116 72 q 117 91 117 113 l 116 530 q 116 552 116 572 q 115 591 111 603 q 110 609 96 612 q 81 615 66 616 q 50 618 44 618 q 41 622 40 632 q 40 642 44 646 q 74 645 102 644 q 131 642 159 642 q 188 642 222 643 q 255 644 298 644 z m 405 466 q 405 530 370 571 q 336 612 255 612 q 246 612 228 611 q 209 610 206 603 q 202 594 202 572 q 201 551 201 529 l 202 325 l 254 325 q 292 325 326 342 q 361 360 383 392 q 405 423 405 466 z"},"T":{"x_min":0,"x_max":611,"ha":611,"o":"m 496 646 q 508 646 527 651 q 546 656 555 660 q 563 664 566 664 q 569 664 573 662 q 578 617 584 575 q 591 533 599 494 q 597 492 592 489 q 587 486 580 487 q 569 487 566 492 q 556 543 533 577 q 510 611 473 611 l 349 611 l 349 113 q 349 91 350 72 q 350 53 354 41 q 356 36 370 32 q 384 28 400 26 q 415 25 421 25 q 424 21 424 11 q 425 1 421 -3 q 391 -1 364 0 q 336 2 307 2 q 279 2 250 0 q 221 -1 191 -3 q 187 1 188 11 q 188 21 191 25 q 197 25 213 26 q 229 28 244 32 q 258 36 259 41 q 263 53 264 72 q 264 91 264 113 l 264 611 l 138 611 q 101 611 78 577 q 55 543 44 492 q 41 487 30 487 q 23 486 18 489 q 14 492 12 494 q 20 533 26 575 q 32 617 37 662 q 42 664 49 662 q 56 661 60 659 q 69 655 86 650 q 102 646 114 646 z"},"P":{"x_min":0,"x_max":535,"ha":535,"o":"m 506 468 q 506 409 479 364 q 452 320 404 296 q 355 271 291 271 q 283 271 270 273 q 257 275 249 279 q 247 281 241 286 q 235 292 235 301 q 235 307 240 306 q 248 304 257 302 q 266 299 277 299 q 336 299 376 338 q 416 378 416 451 q 416 524 376 568 q 336 612 255 612 q 246 612 228 611 q 209 610 206 603 q 202 594 202 572 q 201 551 201 529 l 201 113 q 201 91 202 72 q 202 53 206 41 q 208 36 222 32 q 236 28 252 26 q 267 25 273 25 q 276 21 276 11 q 277 1 273 -3 q 243 -1 216 0 q 188 2 159 2 q 131 2 102 0 q 74 -1 44 -3 q 40 1 40 11 q 41 21 44 25 q 50 25 66 26 q 81 28 96 32 q 110 36 111 41 q 115 53 116 72 q 116 91 116 113 l 116 530 q 116 552 116 572 q 115 591 111 603 q 110 609 96 612 q 81 615 66 616 q 50 618 44 618 q 41 622 40 632 q 40 642 44 646 q 74 645 102 644 q 131 642 159 642 q 188 642 222 643 q 255 644 298 644 q 350 644 398 624 q 445 603 476 564 q 506 525 506 468 z"},"|":{"x_min":0,"x_max":200,"ha":200,"o":"m 125 -369 q 125 -377 84 -385 l 81 -385 q 75 -385 75 -382 l 75 -380 q 75 -379 76 -378 q 76 -377 76 -377 l 76 700 l 77 706 q 78 707 79 707 q 80 707 81 708 q 102 715 117 715 q 125 715 125 709 z"},"t":{"x_min":0,"x_max":303,"ha":303,"o":"m 156 422 l 282 422 q 287 422 287 411 q 287 396 273 382 l 156 382 l 156 126 q 156 46 221 46 q 243 46 261 55 q 279 64 284 68 q 287 67 287 62 q 287 51 283 47 q 276 39 262 26 q 247 13 227 3 q 207 -7 183 -7 q 158 -7 134 2 q 111 11 96 34 q 81 57 81 99 l 81 382 l 24 382 q 22 382 21 386 q 20 389 20 391 q 20 393 26 400 q 32 408 38 415 q 45 422 45 422 l 81 422 l 81 483 q 91 494 104 508 q 118 523 129 536 q 140 548 141 549 q 145 553 150 553 q 156 553 156 550 z"},"M":{"x_min":0,"x_max":885,"ha":885,"o":"m 159 642 q 184 642 203 644 q 222 645 238 646 q 244 627 260 587 q 277 547 300 492 q 322 438 348 377 q 374 316 399 256 q 424 195 445 143 q 446 141 449 141 q 452 141 453 145 q 482 219 505 278 q 528 338 552 398 q 575 457 603 529 q 612 552 622 579 q 632 606 639 626 q 646 646 646 646 q 693 643 723 643 q 749 643 782 644 q 814 645 832 646 q 833 644 834 631 q 835 618 835 618 q 828 618 812 616 q 797 614 783 610 q 769 606 766 601 q 763 594 762 583 q 761 572 761 563 q 762 538 763 487 q 764 436 766 372 q 767 309 768 247 q 770 185 771 137 q 772 109 774 84 q 776 59 783 42 q 786 35 801 32 q 816 28 832 26 q 847 25 851 25 q 855 18 854 8 q 854 -1 853 -3 q 824 -1 796 0 q 769 2 737 2 q 703 2 678 0 q 653 -1 619 -3 q 618 -1 617 9 q 616 19 619 25 q 625 25 638 26 q 651 28 664 30 q 677 33 683 36 q 688 39 690 53 q 692 67 692 77 q 692 88 691 106 q 690 123 690 134 q 688 205 686 270 q 684 336 682 404 q 680 473 677 552 q 677 555 675 563 q 673 571 668 571 q 666 571 663 564 q 633 489 608 425 q 582 361 558 302 q 534 242 510 180 q 485 119 457 48 q 455 44 448 32 q 441 20 434 10 q 426 -1 420 -2 q 418 -3 413 -1 q 412 0 411 0 l 173 570 q 172 506 170 438 q 168 370 166 306 q 165 242 164 190 q 162 139 161 108 q 160 76 160 73 q 160 66 161 58 q 162 49 164 43 q 167 36 184 32 q 202 28 220 26 q 238 25 242 25 q 246 21 245 10 q 244 -1 243 -3 q 214 -1 193 0 q 172 2 140 2 q 106 2 83 0 q 60 -1 26 -3 q 25 -1 24 9 q 23 19 26 25 q 32 25 50 27 q 67 29 84 33 q 101 37 105 43 q 112 53 114 64 q 116 76 117 92 q 120 180 122 261 q 125 342 126 406 q 128 471 129 512 q 130 552 130 559 q 130 570 130 580 q 129 590 126 598 q 124 604 110 608 q 95 613 80 616 q 64 618 58 618 q 57 618 57 632 q 57 645 58 646 q 81 645 95 644 q 109 643 123 642 q 137 642 159 642 z"},"g":{"x_min":0,"x_max":455,"ha":455,"o":"m 294 65 q 333 65 368 51 q 402 37 424 14 q 445 -9 445 -37 q 445 -67 424 -99 q 404 -131 369 -159 q 334 -187 288 -204 q 242 -222 191 -222 q 152 -222 113 -209 q 74 -196 48 -170 q 22 -143 22 -103 q 22 -81 41 -61 q 60 -41 85 -25 q 110 -9 126 -1 q 109 5 90 17 q 72 29 59 48 q 46 66 46 90 q 55 100 72 114 q 88 127 104 139 q 121 151 130 156 q 94 176 72 210 q 49 245 49 281 q 49 320 70 354 q 92 387 130 408 q 167 429 214 429 q 246 429 268 420 q 290 412 303 407 q 317 402 318 402 q 318 402 325 400 l 430 415 q 439 412 439 405 q 439 399 432 384 q 425 370 417 365 q 405 366 390 366 q 375 367 364 368 q 353 369 353 369 q 349 369 349 366 q 353 362 364 336 q 376 311 376 277 q 376 243 354 210 q 333 177 296 156 q 258 134 211 134 q 198 134 181 137 q 164 140 156 143 q 143 136 132 124 q 120 112 120 100 q 120 93 135 79 q 150 65 179 65 z m 249 -4 q 240 -4 220 -4 q 199 -5 180 -6 q 162 -7 158 -9 q 142 -19 121 -37 q 100 -55 100 -74 q 100 -121 134 -152 q 168 -184 230 -184 q 264 -184 298 -169 q 332 -154 355 -130 q 378 -106 378 -79 q 378 -65 365 -48 q 352 -30 324 -17 q 296 -4 249 -4 z m 210 399 q 182 399 163 382 q 144 365 134 339 q 124 313 124 285 q 124 255 135 227 q 146 199 167 181 q 188 163 218 163 q 245 163 264 180 q 282 196 292 222 q 301 247 301 274 q 301 305 291 334 q 281 362 261 380 q 241 399 210 399 z"},"j":{"x_min":0,"x_max":233,"ha":233,"o":""},"i":{"x_min":0,"x_max":263,"ha":263,"o":""},"y":{"x_min":0,"x_max":458,"ha":458,"o":"m 99 415 q 127 415 156 417 q 184 419 197 420 q 199 416 198 404 q 197 392 193 392 q 190 392 178 391 q 166 390 156 386 q 145 383 145 375 q 145 373 146 371 l 250 107 q 250 107 258 128 q 266 150 279 184 q 292 217 307 256 q 322 295 336 329 q 340 338 341 346 q 342 355 342 360 q 342 375 326 384 q 311 392 286 392 q 282 392 282 404 q 282 416 286 420 q 297 419 320 417 q 344 415 374 415 q 402 415 422 417 q 441 419 456 420 q 459 416 458 404 q 456 392 453 392 q 449 392 436 389 q 424 386 410 379 q 397 372 391 358 q 369 306 352 264 q 334 222 318 182 q 301 143 284 100 q 266 58 245 6 q 227 -39 210 -84 q 193 -129 167 -168 q 151 -193 128 -208 q 106 -223 82 -223 q 68 -223 54 -215 q 40 -207 40 -181 q 40 -172 44 -164 q 47 -156 51 -152 q 74 -152 92 -150 q 109 -147 126 -135 q 142 -123 162 -97 q 170 -86 180 -64 q 190 -43 198 -23 q 207 -3 208 2 q 181 72 157 132 q 133 193 108 252 q 84 310 55 372 q 48 387 30 390 q 12 392 3 392 q 1 392 1 392 q 0 392 0 406 q 0 419 1 420 q 15 419 42 417 q 69 415 99 415 z"},"@":{"x_min":0,"x_max":730,"ha":730,"o":"m 408 564 q 480 564 534 539 q 587 514 623 471 q 659 428 677 374 q 695 321 695 264 q 695 190 668 128 q 642 66 596 30 q 551 -7 494 -7 q 458 -7 436 12 q 413 32 413 77 q 413 86 416 101 q 418 116 420 122 q 413 109 398 88 q 384 66 365 45 q 346 24 324 10 q 303 -5 282 -5 q 252 -5 231 14 q 210 33 200 63 q 189 93 189 127 q 189 181 214 234 q 238 286 279 330 q 320 373 370 399 q 419 425 469 425 q 495 425 510 421 q 526 417 540 412 l 480 104 q 479 101 478 92 q 478 83 478 79 q 478 56 492 46 q 505 35 524 35 q 555 35 586 66 q 616 97 636 148 q 656 200 656 261 q 656 311 641 358 q 626 405 596 442 q 565 480 518 502 q 472 525 408 525 q 333 525 274 494 q 215 462 173 410 q 131 357 109 294 q 87 230 87 166 q 87 81 126 18 q 165 -45 217 -76 q 243 -92 260 -97 q 276 -102 290 -104 q 290 -110 277 -116 q 264 -121 255 -121 q 246 -121 236 -120 q 227 -119 217 -115 q 172 -98 134 -58 q 95 -18 72 40 q 48 97 48 166 q 48 238 72 308 q 96 379 142 437 q 189 495 256 530 q 323 564 408 564 z m 428 380 q 400 380 371 360 q 342 339 317 306 q 292 272 277 230 q 262 189 262 147 q 262 101 274 76 q 287 52 312 52 q 330 52 351 72 q 372 92 392 124 q 411 157 426 195 q 441 233 448 268 l 468 367 q 461 375 450 378 q 438 380 428 380 z"},".":{"x_min":0,"x_max":317,"ha":317,"o":"m 120 208 q 127 227 148 212 l 236 151 q 251 141 239 111 l 200 18 q 189 -8 162 13 l 87 70 q 68 85 75 101 z"},"p":{"x_min":0,"x_max":498,"ha":498,"o":"m 284 428 q 329 428 362 409 q 396 390 418 359 q 439 328 450 294 q 460 259 460 227 q 460 180 440 138 q 420 95 387 62 q 354 30 314 11 q 273 -8 232 -8 q 213 -8 194 -4 q 175 -1 163 3 q 163 3 161 0 q 159 -4 159 -10 l 159 -104 q 159 -126 160 -146 q 160 -165 164 -177 q 166 -182 178 -186 q 191 -189 206 -190 q 220 -192 226 -192 q 229 -196 230 -206 q 230 -217 226 -221 q 196 -219 173 -218 q 150 -216 121 -216 q 93 -216 70 -218 q 48 -219 18 -221 q 14 -217 14 -206 q 15 -196 18 -192 q 24 -192 38 -190 q 52 -189 65 -186 q 78 -182 79 -177 q 83 -165 84 -146 q 84 -126 84 -104 l 84 295 q 84 305 84 321 q 83 337 79 346 q 76 355 62 358 q 48 362 34 362 q 20 363 16 363 q 15 365 14 375 q 13 385 16 389 q 54 394 90 404 q 127 414 156 430 q 160 430 163 424 q 166 418 166 414 q 165 409 162 394 q 159 380 159 374 q 159 370 161 370 q 162 370 164 372 q 176 383 197 396 q 218 409 242 418 q 265 428 284 428 z m 242 370 q 222 370 203 364 q 184 357 172 348 q 159 339 159 332 l 159 98 q 159 73 174 57 q 190 41 212 34 q 233 26 250 26 q 291 26 320 50 q 348 75 363 113 q 378 151 378 190 q 378 277 338 324 q 298 370 242 370 z"},"X":{"x_min":0,"x_max":652,"ha":652,"o":"m 156 642 q 192 642 222 644 q 252 645 281 646 q 283 642 283 630 q 283 618 279 618 q 272 618 258 616 q 244 613 232 606 q 220 600 220 587 q 220 576 232 558 l 345 384 q 389 443 429 495 q 469 547 487 576 q 490 581 490 586 q 491 591 491 592 q 491 599 479 608 q 467 617 426 617 q 423 618 422 630 q 422 641 424 646 q 453 644 476 642 q 498 641 525 641 q 563 641 589 643 q 615 645 632 646 q 634 642 634 632 q 635 622 630 617 q 626 617 610 614 q 595 612 576 604 q 558 595 543 578 q 506 533 478 500 q 451 467 425 433 q 399 399 364 352 l 556 64 q 570 43 599 34 q 628 25 652 25 q 655 21 654 10 q 654 -1 653 -3 q 624 -1 603 0 q 582 2 552 2 q 511 2 480 0 q 450 -1 409 -3 q 405 1 405 13 q 405 25 409 25 q 415 25 428 28 q 442 31 454 38 q 466 44 466 53 q 466 55 464 58 q 463 62 461 64 l 312 294 q 290 265 264 230 q 239 194 215 160 q 191 126 174 100 q 157 74 151 64 q 150 62 148 58 q 146 54 146 49 q 146 40 163 32 q 180 25 221 25 q 224 21 224 10 q 225 -1 223 -3 q 196 -1 168 0 q 140 2 113 2 q 75 2 48 0 q 21 -1 -8 -3 q -10 2 -8 12 q -7 23 -6 25 q -2 25 18 28 q 39 32 62 42 q 86 51 99 68 q 136 116 166 156 q 196 196 226 236 q 255 277 290 324 q 279 342 262 368 q 244 395 226 424 q 207 453 190 478 q 174 503 164 519 q 153 535 153 535 q 137 561 122 576 q 108 591 88 603 q 75 611 58 614 q 42 618 33 618 q 29 618 29 630 q 29 642 33 646 q 69 645 94 644 q 120 642 156 642 z"},"*":{"x_min":0,"x_max":432,"ha":432,"o":"m 295 599 q 308 613 323 617 q 338 621 349 610 q 361 598 359 584 q 357 569 343 556 q 318 533 294 523 q 269 513 249 493 q 249 493 246 488 q 243 483 244 479 q 245 473 253 470 q 279 458 302 456 q 326 455 358 440 q 375 433 384 420 q 393 407 386 393 q 379 378 364 375 q 349 372 333 381 q 302 398 286 418 q 269 438 244 451 q 244 451 239 454 q 234 456 230 454 q 226 452 226 448 q 225 445 224 441 q 223 428 224 416 q 225 405 226 394 q 228 381 229 366 q 230 352 228 333 q 226 315 216 302 q 207 290 191 292 q 175 294 168 308 q 160 321 164 339 q 171 374 185 396 q 199 418 204 446 q 204 446 204 451 q 204 456 201 459 q 197 464 188 462 q 161 456 141 444 q 121 432 86 424 q 69 420 53 425 q 37 430 35 446 q 32 462 43 474 q 54 485 72 487 q 90 489 106 488 q 121 487 134 484 q 147 483 159 482 q 171 480 185 482 q 185 482 190 484 q 195 486 196 490 q 199 496 194 504 q 180 528 162 544 q 144 559 127 590 q 118 606 118 622 q 119 638 132 645 q 147 653 160 646 q 174 639 182 622 q 197 590 198 564 q 199 539 212 513 q 212 513 215 508 q 218 503 222 502 q 228 501 235 508 q 254 528 263 550 q 272 573 295 599 z"},"Y":{"x_min":0,"x_max":583,"ha":583,"o":"m 255 113 l 255 261 q 255 274 248 288 q 227 327 210 356 q 194 385 179 411 q 164 437 148 466 q 131 496 109 535 q 93 562 79 576 q 65 591 45 603 q 32 611 16 614 q -1 618 -10 618 q -14 618 -14 630 q -14 642 -10 646 q 26 645 51 644 q 76 642 112 642 q 148 642 178 644 q 208 645 237 646 q 239 642 239 630 q 239 618 235 618 q 228 618 214 616 q 200 613 188 606 q 177 600 177 587 q 177 576 188 558 l 324 323 q 342 355 362 394 q 382 432 400 468 q 418 505 432 534 q 445 563 451 576 q 452 578 453 582 q 454 587 454 591 q 454 599 440 608 q 427 617 386 617 q 384 617 384 630 q 383 644 384 646 q 411 645 432 643 q 454 641 481 641 q 507 641 524 642 q 540 643 555 644 q 570 645 589 646 q 591 642 590 630 q 589 617 587 617 q 583 617 566 616 q 549 614 530 606 q 511 598 500 578 q 486 554 466 518 q 446 481 424 440 q 402 400 382 362 q 361 323 345 294 q 341 287 341 281 q 341 275 341 269 q 341 266 341 264 q 341 235 341 200 q 341 164 340 138 q 340 113 340 113 q 340 110 340 107 q 340 104 340 101 q 340 82 340 66 q 341 51 344 41 q 346 36 360 32 q 374 28 390 26 q 406 25 412 25 q 415 21 416 11 q 416 1 412 -3 q 382 -1 354 0 q 327 2 298 2 q 270 2 241 0 q 212 -1 182 -3 q 178 1 178 11 q 179 21 182 25 q 188 25 204 26 q 220 28 234 32 q 249 36 250 41 q 254 53 254 72 q 255 91 255 113 z"},"c":{"x_min":0,"x_max":413,"ha":413,"o":"m 373 377 q 373 351 361 340 q 349 330 336 330 q 320 330 306 344 q 292 358 279 366 q 263 377 253 381 q 243 385 224 385 q 198 385 172 366 q 147 346 130 310 q 114 274 114 222 q 114 137 160 97 q 206 57 272 57 q 313 57 340 76 q 366 95 376 106 q 377 106 380 102 q 384 99 384 93 q 384 85 378 75 q 369 61 350 42 q 331 22 302 7 q 273 -8 235 -8 q 176 -8 132 20 q 87 48 62 93 q 38 138 38 189 q 38 243 60 286 q 83 330 118 362 q 154 394 196 411 q 237 428 275 428 q 329 428 363 404 q 366 401 370 393 q 373 385 373 377 z"},"!":{"x_min":0,"x_max":235,"ha":235,"o":"m 122 666 q 144 666 154 648 q 165 629 165 609 q 165 557 156 447 q 148 337 131 168 q 125 156 115 155 q 106 160 103 166 q 73 504 73 609 q 73 629 87 648 q 101 666 122 666 z m 64 44 q 64 66 80 81 q 98 97 118 97 q 140 97 156 81 q 171 66 171 44 q 171 23 156 6 q 141 -11 118 -11 q 97 -11 80 6 q 64 22 64 44 z"},"/":{"x_min":0,"x_max":344,"ha":344,"o":"m 302 702 q 311 702 314 693 l 71 -164 q 70 -169 58 -178 q 47 -186 33 -186 q 28 -186 22 -184 q 18 -182 16 -181 l 15 -179 l 263 688 q 263 690 268 693 q 272 696 282 699 q 291 702 302 702 z"},"[":{"x_min":0,"x_max":361,"ha":361,"o":"m 165 710 l 314 716 l 317 710 l 317 707 q 317 696 309 692 q 308 692 308 692 q 308 691 308 691 q 289 685 260 680 q 231 674 193 669 l 193 -339 l 259 -349 q 293 -355 308 -361 q 317 -366 317 -377 q 317 -381 316 -382 l 315 -385 l 314 -386 l 227 -381 q 211 -380 196 -380 q 180 -380 165 -380 q 149 -379 146 -357 l 146 688 q 146 701 156 708 q 159 710 165 710 z"},"6":{"x_min":0,"x_max":532,"ha":532,"o":"m 282 386 q 333 386 368 367 q 402 348 422 318 q 443 289 452 256 q 461 224 461 198 q 461 144 434 98 q 408 51 364 22 q 319 -6 263 -6 q 219 -6 184 14 q 148 33 123 65 q 98 97 84 136 q 71 176 71 215 q 71 290 95 357 q 119 424 165 474 q 200 512 246 544 q 291 576 338 599 q 386 622 427 632 q 434 632 436 620 q 438 609 438 604 q 407 594 368 576 q 328 558 288 528 q 248 498 216 452 q 184 407 167 342 q 193 363 225 374 q 257 386 282 386 z m 159 299 q 157 283 156 266 q 155 249 155 232 q 155 199 162 163 q 169 127 184 96 q 198 65 220 46 q 242 26 271 26 q 318 26 348 70 q 378 114 378 180 q 378 222 366 258 q 353 294 326 316 q 299 338 255 338 q 234 338 208 332 q 183 325 159 299 z"},"r":{"x_min":0,"x_max":374,"ha":374,"o":"m 296 427 q 315 427 332 418 q 349 410 356 398 q 358 394 359 387 q 360 380 360 372 q 360 345 348 333 q 335 321 327 321 q 317 321 308 328 q 299 335 291 340 q 284 345 276 348 q 269 352 255 352 q 234 352 216 334 q 199 317 188 296 q 177 275 177 264 l 177 113 q 177 91 178 72 q 178 53 182 41 q 184 36 202 32 q 220 28 240 26 q 260 25 266 25 q 269 21 270 11 q 270 1 266 -3 q 236 -1 205 0 q 174 2 145 2 q 117 2 91 0 q 65 -1 35 -3 q 31 1 32 11 q 32 21 35 25 q 41 25 56 26 q 70 28 83 32 q 96 36 97 41 q 101 53 102 72 q 102 91 102 113 l 102 295 q 102 305 102 321 q 101 337 97 346 q 94 355 80 358 q 66 362 52 362 q 38 363 34 363 q 33 365 32 375 q 31 385 34 389 q 72 394 108 404 q 144 414 173 430 q 177 430 180 424 q 184 418 184 414 q 184 411 182 391 q 180 371 178 350 q 177 330 177 324 q 177 321 178 321 q 180 321 181 322 q 191 343 210 368 q 228 392 251 410 q 274 427 296 427 z"},"2":{"x_min":0,"x_max":532,"ha":532,"o":"m 467 146 q 457 122 446 92 q 435 61 426 35 q 417 9 414 0 l 76 0 q 73 2 70 6 q 66 11 66 14 q 107 60 150 110 q 193 160 232 209 q 271 258 299 299 q 329 343 338 376 q 346 409 346 445 q 346 495 316 529 q 285 563 238 563 q 199 563 170 546 q 141 529 123 509 q 105 489 99 479 q 93 479 86 486 q 80 492 80 495 q 83 504 96 526 q 110 547 134 570 q 158 594 190 610 q 221 627 260 627 q 307 627 346 604 q 384 580 406 543 q 429 506 429 464 q 429 422 414 385 q 399 348 373 316 q 339 274 298 226 q 256 179 219 138 q 182 96 160 71 l 354 71 q 383 71 402 90 q 420 108 436 146 q 438 152 447 152 q 450 152 457 150 q 464 148 467 146 z"},"{":{"x_min":0,"x_max":397,"ha":397,"o":"m 190 -225 q 186 -295 254 -371 q 263 -383 252 -394 q 241 -405 229 -395 q 151 -329 149 -201 q 147 -141 177 -66 q 205 9 209 38 q 218 104 142 150 l 142 182 q 218 228 209 294 q 207 310 199 336 q 191 361 177 398 q 149 475 149 533 q 152 661 229 726 q 241 737 252 726 q 262 714 253 702 q 185 627 190 556 q 193 517 221 470 q 270 389 256 296 q 243 208 182 166 q 243 122 256 36 q 270 -57 221 -138 q 193 -185 190 -225 z"},"9":{"x_min":0,"x_max":532,"ha":532,"o":"m 94 22 q 125 32 164 50 q 204 68 244 98 q 284 128 316 174 q 349 219 365 284 q 340 263 308 252 q 275 240 250 240 q 199 240 164 259 q 130 278 110 308 q 89 337 80 370 q 72 402 72 428 q 72 483 98 529 q 125 575 170 604 q 215 632 270 632 q 314 632 350 612 q 385 593 410 561 q 435 529 448 490 q 461 450 461 411 q 461 336 438 269 q 414 202 367 152 q 333 114 287 82 q 241 50 194 28 q 146 5 105 -6 q 98 -6 96 6 q 94 18 94 22 z m 373 327 q 375 343 376 360 q 377 377 377 394 q 377 427 370 463 q 363 499 349 530 q 335 561 313 580 q 291 600 262 600 q 216 600 186 556 q 155 512 155 446 q 155 405 167 368 q 179 332 206 310 q 233 288 277 288 q 298 288 324 294 q 349 301 373 327 z"}," ":{"x_min":0,"x_max":292,"ha":292,"o":""},"I":{"x_min":0,"x_max":316,"ha":316,"o":"m 160 642 q 189 642 216 644 q 244 645 274 646 q 278 642 278 632 q 277 622 274 618 q 268 618 252 616 q 236 615 222 612 q 208 609 206 603 q 203 593 202 577 q 202 561 202 542 q 202 539 202 536 q 202 533 202 530 l 202 113 q 202 110 202 107 q 202 104 202 101 q 202 82 202 66 q 203 51 206 41 q 208 36 222 32 q 236 28 252 26 q 268 25 274 25 q 277 21 278 11 q 278 1 274 -3 q 244 -1 216 0 q 189 2 160 2 q 132 2 103 0 q 74 -1 44 -3 q 40 1 40 11 q 41 21 44 25 q 50 25 66 26 q 82 28 96 32 q 111 36 112 41 q 116 53 116 72 q 117 91 117 113 l 117 530 q 117 552 116 572 q 116 591 112 603 q 111 609 96 612 q 82 615 66 616 q 50 618 44 618 q 41 622 40 632 q 40 642 44 646 q 74 645 103 644 q 132 642 160 642 z"},"H":{"x_min":0,"x_max":708,"ha":708,"o":"m 160 642 q 189 642 216 644 q 244 645 274 646 q 278 642 278 630 q 277 619 274 615 q 268 615 252 614 q 236 612 222 609 q 208 606 206 600 q 203 590 202 574 q 202 558 202 539 q 202 536 202 533 q 202 530 202 527 l 202 356 q 202 355 203 354 q 204 354 204 354 q 240 353 278 352 q 316 351 357 351 q 392 351 432 352 q 473 353 506 354 q 506 354 507 355 q 508 356 508 357 l 508 527 q 508 549 508 568 q 507 588 503 600 q 502 606 488 609 q 473 612 458 614 q 442 615 436 615 q 433 619 432 630 q 432 642 436 646 q 466 645 494 644 q 523 642 551 642 q 580 642 608 644 q 635 645 665 646 q 669 642 668 630 q 668 619 665 615 q 659 615 644 614 q 628 612 614 609 q 600 606 598 600 q 594 588 594 568 q 593 549 593 527 l 593 116 q 593 94 594 75 q 594 56 598 44 q 600 39 614 35 q 628 31 644 30 q 659 28 665 28 q 668 24 668 12 q 669 1 665 -3 q 635 -1 608 0 q 580 2 551 2 q 523 2 494 0 q 466 -1 436 -3 q 432 1 432 12 q 433 24 436 28 q 442 28 458 30 q 473 31 488 35 q 502 39 503 44 q 507 56 508 75 q 508 94 508 116 l 508 310 q 508 312 507 312 q 506 313 506 313 q 472 314 434 316 q 395 317 357 317 q 289 317 257 316 q 225 315 215 314 q 205 313 203 312 q 202 311 202 310 q 202 310 202 310 l 202 116 q 202 113 202 110 q 202 107 202 104 q 202 85 202 70 q 203 54 206 44 q 208 39 222 35 q 236 31 252 30 q 268 28 274 28 q 277 24 278 12 q 278 1 274 -3 q 244 -1 216 0 q 189 2 160 2 q 132 2 103 0 q 74 -1 44 -3 q 40 1 40 12 q 41 24 44 28 q 50 28 66 30 q 82 31 96 35 q 111 39 112 44 q 116 56 116 75 q 117 94 117 116 l 117 527 q 117 549 116 568 q 116 588 112 600 q 111 606 96 609 q 82 612 66 614 q 50 615 44 615 q 41 619 40 630 q 40 642 44 646 q 74 645 103 644 q 132 642 160 642 z"},"4":{"x_min":0,"x_max":532,"ha":532,"o":"m 396 629 q 404 629 408 623 q 411 617 411 611 l 411 226 l 469 226 q 474 226 478 214 q 482 202 482 186 q 482 175 479 170 l 411 170 l 411 -1 q 411 -1 404 -4 q 398 -6 369 -6 q 334 -6 334 2 l 334 170 l 59 170 q 54 173 52 178 q 49 184 49 188 l 367 604 q 372 610 381 620 q 390 629 396 629 z m 334 512 l 115 226 l 334 226 z"},"~":{"x_min":0,"x_max":556,"ha":556,"o":"m 265 271 q 240 281 212 288 q 185 296 152 296 q 124 296 102 282 q 80 269 63 253 q 55 257 55 270 q 55 288 76 306 q 97 323 126 334 q 156 346 182 346 q 217 346 244 338 q 272 329 298 319 q 324 309 351 302 q 378 294 412 294 q 441 294 460 308 q 479 321 500 337 q 509 333 509 320 q 509 304 490 286 q 472 269 444 256 q 415 244 384 244 q 348 244 320 252 q 292 261 265 271 z"},"D":{"x_min":0,"x_max":693,"ha":693,"o":"m 301 643 q 408 643 485 602 q 562 560 603 488 q 644 417 644 326 q 644 264 627 205 q 610 146 570 99 q 529 52 460 24 q 391 -3 288 -3 l 44 -3 q 40 1 40 11 q 41 21 44 25 q 50 25 66 26 q 82 28 96 32 q 111 36 112 41 q 116 53 116 72 q 117 91 117 113 l 117 530 q 117 552 116 572 q 116 591 112 603 q 111 609 96 612 q 82 615 66 616 q 50 618 44 618 q 41 622 40 632 q 40 642 44 646 q 74 645 103 644 q 132 642 160 642 q 189 642 229 642 q 269 643 301 643 z m 203 528 l 203 112 q 203 105 203 90 q 203 74 204 60 q 206 45 208 42 q 214 34 238 31 q 261 28 288 28 q 358 28 416 58 q 475 88 511 150 q 547 211 547 306 q 547 389 524 447 q 502 505 464 542 q 425 578 376 594 q 328 611 275 611 q 269 611 253 610 q 237 610 223 608 q 209 606 207 601 q 204 591 204 574 q 203 558 203 540 q 203 537 203 534 q 203 531 203 528 z"},"^":{"x_min":0,"x_max":380,"ha":380,"o":"m 182 630 q 191 630 197 617 q 217 579 233 550 q 249 521 266 494 q 283 466 304 429 q 304 422 299 418 q 294 413 289 413 q 272 431 254 452 q 235 474 218 494 q 202 513 192 526 q 182 539 182 539 q 182 539 172 526 q 162 513 146 494 q 129 474 110 452 q 92 431 75 413 q 71 413 66 418 q 60 422 60 429 q 81 466 98 494 q 115 521 132 550 q 148 579 167 617 q 174 630 182 630 z"},"0":{"x_min":0,"x_max":532,"ha":532,"o":"m 266 626 q 335 626 382 583 q 430 540 454 468 q 479 397 479 312 q 479 227 454 156 q 429 84 382 40 q 334 -3 266 -3 q 200 -3 152 40 q 104 84 78 156 q 53 227 53 312 q 53 397 78 468 q 103 540 151 583 q 199 626 266 626 z m 271 590 q 230 590 200 552 q 171 515 155 452 q 139 389 139 312 q 139 236 155 172 q 171 109 198 71 q 226 33 262 33 q 306 33 335 72 q 364 111 378 176 q 393 241 393 317 q 393 394 378 456 q 362 517 334 554 q 307 590 271 590 z"},"F":{"x_min":0,"x_max":522,"ha":522,"o":"m 160 642 q 229 642 312 645 q 395 648 474 648 q 479 611 487 580 q 495 549 502 516 q 497 511 485 511 q 472 511 471 518 q 455 577 426 593 q 397 609 358 609 l 274 609 q 268 609 252 608 q 236 608 222 606 q 208 604 206 599 q 203 589 202 573 q 202 557 202 540 q 202 533 202 529 l 202 347 q 202 343 215 342 q 228 341 244 341 l 295 341 q 330 341 350 343 q 369 345 378 352 q 387 359 392 373 q 397 387 403 411 q 404 418 417 418 q 429 418 434 413 l 434 229 q 430 225 418 225 q 406 225 403 232 q 396 260 392 272 q 387 285 384 290 q 380 294 375 297 q 370 301 352 302 q 334 304 312 304 q 291 305 272 305 q 259 305 242 304 q 226 304 214 302 q 202 301 202 296 l 202 113 q 202 110 202 107 q 202 104 202 101 q 202 82 202 66 q 203 51 206 41 q 208 36 224 32 q 241 28 260 26 q 278 25 284 25 q 287 21 288 11 q 288 1 284 -3 q 254 -1 222 0 q 189 2 160 2 q 126 2 100 0 q 73 -3 44 -3 q 40 1 40 11 q 41 21 44 25 q 50 25 66 26 q 82 28 96 32 q 111 36 112 41 q 116 53 116 72 q 117 91 117 113 l 117 530 q 117 552 116 572 q 116 591 112 603 q 111 609 96 612 q 82 615 66 616 q 50 618 44 618 q 41 622 40 632 q 40 642 44 646 q 74 645 103 644 q 132 642 160 642 z"},"`":{"x_min":0,"x_max":333,"ha":333,"o":""},"k":{"x_min":0,"x_max":505,"ha":505,"o":"m 162 113 q 162 91 162 72 q 163 53 167 41 q 169 36 182 32 q 194 28 208 26 q 223 25 229 25 q 232 21 232 11 q 233 1 229 -3 q 199 -1 176 0 q 153 2 124 2 q 96 2 74 0 q 51 -1 21 -3 q 17 1 18 11 q 18 21 21 25 q 27 25 41 26 q 55 28 68 32 q 81 36 82 41 q 86 53 86 72 q 87 91 87 113 l 87 545 q 87 556 86 572 q 86 587 82 596 q 78 607 60 610 q 43 613 23 613 q 22 613 22 626 q 21 638 24 639 q 61 643 96 654 q 131 664 162 678 q 166 678 170 672 q 173 667 173 662 q 173 662 168 640 q 162 618 162 577 l 162 229 q 175 234 196 251 q 218 268 243 289 q 281 321 306 342 q 332 363 332 370 q 332 378 322 381 q 313 384 302 386 q 291 387 286 387 q 282 392 282 403 q 283 414 287 415 q 308 413 333 412 q 358 410 381 410 q 432 410 467 415 q 470 411 470 400 q 469 390 467 387 q 457 387 432 381 q 408 375 392 364 q 388 361 371 349 q 354 337 330 319 q 307 301 282 281 q 256 261 234 243 q 271 204 307 164 q 343 123 371 92 q 399 62 410 52 q 429 36 454 30 q 480 24 499 25 q 501 23 502 14 q 502 6 500 2 q 495 0 476 -2 q 457 -4 437 -4 q 394 -4 361 12 q 328 27 317 39 q 317 39 304 54 q 290 68 268 92 q 246 115 222 141 q 198 167 177 190 q 174 194 168 196 q 162 199 162 199 z"},"u":{"x_min":0,"x_max":502,"ha":502,"o":"m 341 312 q 341 313 341 316 q 341 326 340 340 q 339 355 334 365 q 327 379 308 382 q 289 385 279 385 q 277 387 276 396 q 276 406 279 410 q 317 412 352 417 q 387 422 413 430 q 417 430 420 420 q 423 410 423 406 q 420 400 418 382 q 417 364 417 343 l 417 138 q 417 130 418 106 q 419 83 423 63 q 426 51 446 49 q 465 47 475 46 q 480 46 481 46 q 483 45 484 41 q 484 37 484 35 q 484 34 482 27 q 480 20 476 20 q 451 19 422 12 q 392 5 371 -2 q 350 -8 349 -8 q 345 -8 343 -2 q 341 3 341 8 l 341 53 q 341 57 340 58 q 339 58 339 58 q 326 44 303 28 q 280 13 253 3 q 226 -7 201 -7 q 162 -7 138 12 q 114 30 101 60 q 88 89 84 123 q 79 157 79 188 l 79 312 q 79 322 78 338 q 77 354 71 365 q 64 379 45 382 q 26 385 16 385 q 14 387 14 396 q 13 406 16 410 q 54 412 89 417 q 124 422 150 430 q 154 430 158 422 q 161 414 161 410 q 158 404 156 384 q 154 364 154 343 l 154 199 q 154 121 178 84 q 201 48 252 48 q 274 48 294 56 q 314 65 328 78 q 341 91 341 102 z"},"]":{"x_min":0,"x_max":361,"ha":361,"o":"m 196 710 q 203 710 206 708 q 215 702 215 688 l 215 -357 q 212 -379 196 -380 q 181 -380 166 -380 q 151 -380 135 -381 l 47 -386 l 46 -385 l 45 -382 q 44 -381 44 -377 q 44 -367 54 -361 q 69 -355 103 -349 l 168 -339 l 168 669 q 130 674 102 680 q 73 685 54 691 q 54 691 54 692 q 53 692 52 692 q 44 696 44 707 l 44 710 l 47 716 z"},"U":{"x_min":0,"x_max":706,"ha":706,"o":"m 144 642 q 173 642 200 644 q 228 645 258 646 q 262 642 262 632 q 261 622 258 618 q 252 618 236 616 q 221 615 207 612 q 193 609 191 603 q 187 591 186 572 q 186 552 186 530 l 186 289 q 186 228 198 183 q 211 138 234 109 q 280 53 368 53 q 419 53 461 72 q 503 91 530 138 q 556 184 557 268 l 557 532 q 557 558 556 573 q 555 588 547 600 q 544 605 530 610 q 516 614 500 616 q 485 619 477 619 q 473 624 474 634 q 474 643 475 647 q 504 646 528 644 q 551 643 583 643 q 606 643 620 644 q 635 644 650 645 q 666 646 688 647 q 690 643 691 635 q 692 627 688 619 q 682 619 665 617 q 648 615 632 610 q 616 606 612 600 q 605 589 604 575 q 602 561 602 533 l 602 270 q 602 173 570 112 q 538 52 480 24 q 423 -4 347 -4 q 295 -4 250 13 q 205 30 173 61 q 139 93 120 140 q 101 187 101 245 l 101 530 q 101 552 100 572 q 100 591 96 603 q 95 609 80 612 q 66 615 50 616 q 35 618 29 618 q 26 622 26 632 q 25 642 29 646 q 59 645 88 644 q 116 642 144 642 z"},"o":{"x_min":0,"x_max":497,"ha":497,"o":"m 248 429 q 313 429 360 401 q 406 373 432 325 q 457 277 457 216 q 457 153 430 102 q 403 52 356 22 q 309 -7 250 -7 q 186 -7 138 22 q 91 50 66 98 q 40 147 40 208 q 40 271 68 321 q 95 371 142 400 q 189 429 248 429 z m 237 396 q 196 396 171 372 q 146 347 135 308 q 124 270 124 228 q 124 181 140 134 q 155 87 186 56 q 216 25 260 25 q 302 25 326 50 q 351 74 362 113 q 373 152 373 193 q 373 241 357 288 q 341 334 311 365 q 281 396 237 396 z"},"N":{"x_min":0,"x_max":757,"ha":757,"o":"m 140 645 q 162 645 183 645 q 204 645 214 646 q 229 623 262 581 q 295 539 339 486 q 383 432 430 375 q 477 318 521 262 q 565 207 597 162 l 597 532 q 597 558 596 573 q 595 588 587 600 q 584 605 569 610 q 554 614 538 616 q 521 619 513 619 q 509 624 510 634 q 510 643 511 647 q 540 646 566 644 q 591 643 623 643 q 646 643 660 644 q 675 644 690 645 q 706 646 728 647 q 730 643 731 635 q 732 627 728 619 q 722 619 704 617 q 687 615 671 610 q 655 606 651 600 q 644 589 643 575 q 642 561 642 533 l 642 136 q 642 108 642 87 q 642 66 642 46 q 643 27 644 1 q 643 -3 638 -4 q 633 -5 631 -5 q 627 -5 618 0 q 608 5 597 18 l 171 556 l 171 112 q 171 86 172 72 q 174 57 181 45 q 184 40 198 36 q 213 31 230 28 q 246 25 254 25 q 258 20 258 11 q 258 2 256 -3 q 227 -1 202 0 q 177 2 145 2 q 123 2 108 1 q 92 0 78 -1 q 63 -2 40 -3 q 38 1 37 9 q 36 17 40 25 q 46 25 63 28 q 80 30 96 34 q 113 39 116 45 q 123 56 124 70 q 126 83 126 111 l 126 535 q 126 563 124 577 q 123 591 116 602 q 113 608 96 612 q 80 617 63 619 q 46 621 40 621 q 36 629 37 637 q 38 645 40 649 q 74 648 95 646 q 116 645 140 645 z"},"+":{"x_min":0,"x_max":529,"ha":529,"o":"m 236 463 q 248 468 260 471 q 273 474 278 474 q 286 474 288 471 q 291 468 291 468 l 291 268 l 490 268 q 499 268 499 256 q 499 244 494 232 q 489 219 483 213 l 291 213 l 291 16 q 282 9 270 7 q 257 5 249 5 q 236 5 236 14 l 236 213 l 36 213 q 36 213 33 214 q 30 216 30 223 q 30 226 34 244 q 38 262 45 268 l 236 268 z"},"G":{"x_min":0,"x_max":703,"ha":703,"o":"m 522 171 q 522 174 522 177 q 522 180 522 183 q 522 202 522 218 q 521 233 518 243 q 517 249 502 252 q 488 256 472 258 q 457 259 451 259 q 448 263 448 273 q 447 283 451 287 q 481 286 509 284 q 537 282 565 282 q 594 282 620 284 q 645 286 675 287 q 679 283 678 273 q 678 263 675 259 q 669 259 654 258 q 639 256 626 252 q 613 249 611 243 q 607 231 606 212 q 606 193 606 171 l 606 102 q 606 86 611 78 q 616 70 616 62 q 616 58 613 55 q 610 52 597 45 q 576 34 548 22 q 521 10 480 2 q 438 -6 373 -6 q 301 -6 241 20 q 181 45 138 90 q 94 134 70 192 q 47 249 47 314 q 47 383 72 444 q 96 504 140 551 q 184 598 244 624 q 305 651 377 651 q 425 651 478 647 q 530 643 584 631 q 584 631 588 610 q 591 590 595 562 q 599 535 602 512 q 606 490 606 486 q 607 482 600 478 q 593 474 585 474 q 578 474 573 477 q 571 488 564 511 q 556 534 536 559 q 517 584 480 602 q 443 619 382 619 q 328 619 284 594 q 240 570 208 528 q 177 487 160 436 q 144 386 144 335 q 144 278 160 223 q 175 168 206 124 q 238 79 286 52 q 333 26 397 26 q 435 26 464 36 q 494 47 516 58 q 521 60 522 64 q 522 67 522 72 z"},"q":{"x_min":0,"x_max":485,"ha":485,"o":"m 279 428 q 294 428 315 422 q 336 416 358 410 q 380 403 396 403 q 406 403 415 406 q 420 406 424 398 q 428 389 428 385 q 421 370 418 348 q 416 327 416 312 l 416 -105 q 416 -127 416 -146 q 417 -166 421 -178 q 423 -183 436 -186 q 448 -190 462 -192 q 476 -193 482 -193 q 485 -197 486 -208 q 486 -218 482 -222 q 452 -220 430 -218 q 407 -217 378 -217 q 350 -217 327 -218 q 304 -220 274 -222 q 270 -218 270 -208 q 271 -197 274 -193 q 280 -193 294 -192 q 309 -190 322 -186 q 335 -183 336 -178 q 340 -166 340 -146 q 341 -127 341 -105 l 341 39 q 341 43 340 48 q 338 52 334 49 q 327 43 306 30 q 284 16 258 4 q 233 -7 212 -7 q 170 -7 138 12 q 105 31 83 61 q 61 91 50 126 q 38 161 38 194 q 38 244 60 287 q 83 330 120 362 q 156 393 198 410 q 240 428 279 428 z m 250 393 q 216 393 191 376 q 166 359 150 334 q 135 308 128 280 q 120 252 120 229 q 120 143 161 98 q 202 52 263 52 q 292 52 316 66 q 341 80 341 91 l 341 324 q 341 345 327 360 q 313 376 292 384 q 272 393 250 393 z"},"d":{"x_min":0,"x_max":502,"ha":502,"o":"m 271 428 q 287 428 309 424 q 331 421 338 418 q 343 418 343 438 l 343 545 q 343 556 342 572 q 342 587 338 596 q 334 607 316 610 q 298 613 278 613 q 277 613 276 626 q 276 638 279 639 q 316 643 352 654 q 387 664 418 678 q 422 678 426 672 q 429 667 429 662 q 429 662 424 640 q 418 618 418 577 l 418 159 q 418 131 420 102 q 421 74 425 63 q 430 52 448 50 q 467 47 477 46 q 481 46 482 46 q 484 45 484 40 q 485 36 485 34 q 485 33 484 26 q 482 20 478 20 q 453 19 424 12 q 394 5 373 -2 q 352 -8 351 -8 q 347 -8 345 -1 q 343 6 343 11 l 343 45 q 343 54 340 51 q 333 43 310 29 q 288 15 261 4 q 234 -8 210 -8 q 166 -8 126 20 q 87 47 62 94 q 38 142 38 201 q 38 249 62 290 q 85 332 122 362 q 158 393 198 410 q 238 428 271 428 z m 239 387 q 202 387 176 364 q 149 340 134 303 q 120 266 120 225 q 120 179 136 140 q 152 101 183 77 q 214 53 258 53 q 291 53 317 66 q 343 80 343 92 l 343 339 q 343 356 312 372 q 280 387 239 387 z"},"1":{"x_min":0,"x_max":532,"ha":532,"o":"m 241 113 l 241 508 q 241 529 236 537 q 232 545 221 545 q 210 545 187 538 q 164 530 152 525 q 143 532 143 542 q 143 542 143 543 q 143 547 145 548 q 185 566 224 584 q 262 603 288 615 q 313 627 314 627 l 316 627 q 321 627 323 621 q 325 615 326 611 q 326 611 322 586 q 318 562 318 517 l 318 113 q 318 91 318 72 q 319 53 323 41 q 325 36 338 32 q 351 28 366 26 q 380 25 386 25 q 389 21 390 11 q 390 1 386 -3 q 356 -1 331 0 q 306 2 277 2 q 249 2 226 0 q 203 -1 173 -3 q 169 1 170 11 q 170 21 173 25 q 179 25 194 26 q 208 28 221 32 q 234 36 235 41 q 239 53 240 72 q 241 91 241 113 z"},"5":{"x_min":0,"x_max":532,"ha":532,"o":"m 266 386 q 324 386 364 360 q 405 334 427 294 q 449 255 449 213 q 449 163 428 122 q 406 82 370 54 q 335 25 291 10 q 247 -5 201 -5 q 182 -5 154 0 q 125 6 102 18 q 98 21 90 32 q 82 43 82 55 q 82 76 94 89 q 107 102 123 102 q 143 102 154 86 q 166 71 178 59 q 192 45 212 40 q 231 34 250 34 q 276 34 302 48 q 329 63 347 96 q 365 130 365 186 q 365 217 350 250 q 334 284 300 308 q 266 331 209 331 q 193 331 166 326 q 139 322 127 316 q 124 316 122 320 q 119 325 119 330 q 130 385 141 440 q 152 495 162 542 q 171 590 176 620 l 320 620 q 340 620 361 622 q 382 624 396 626 q 410 629 410 629 q 415 626 418 624 q 422 622 422 618 q 422 615 418 602 q 415 590 408 575 q 402 560 393 549 q 373 547 345 545 q 317 543 279 543 l 197 543 q 188 499 180 454 q 171 408 162 367 q 182 375 214 380 q 247 386 266 386 z"}}}
